<svg viewBox="0 0 22 12" fill="none" xmlns="http://www.w3.org/2000/svg">
<path d="M6 12C4.33333 12 2.91667 11.4167 1.75 10.25C0.583333 9.08333 0 7.66667 0 6C0 4.33333 0.583333 2.91667 1.75 1.75C2.91667 0.583333 4.33333 0 6 0C7.35 0 8.52933 0.379 9.538 1.137C10.546 1.89567 11.25 2.85 11.65 4H20C20.55 4 21.021 4.19567 21.413 4.587C21.8043 4.979 22 5.45 22 6C22 6.6 21.7917 7.08333 21.375 7.45C20.9583 7.81667 20.5 8 20 8V10C20 10.55 19.8043 11.021 19.413 11.413C19.021 11.8043 18.55 12 18 12C17.45 12 16.979 11.8043 16.587 11.413C16.1957 11.021 16 10.55 16 10V8H11.65C11.25 9.15 10.546 10.1043 9.538 10.863C8.52933 11.621 7.35 12 6 12ZM6 8C6.55 8 7.02067 7.804 7.412 7.412C7.804 7.02067 8 6.55 8 6C8 5.45 7.804 4.979 7.412 4.587C7.02067 4.19567 6.55 4 6 4C5.45 4 4.97933 4.19567 4.588 4.587C4.196 4.979 4 5.45 4 6C4 6.55 4.196 7.02067 4.588 7.412C4.97933 7.804 5.45 8 6 8Z"/>
</svg>
