<svg width="24" height="24" viewBox="0 0 24 24" fill="none" xmlns="http://www.w3.org/2000/svg">
<path d="M17 3.33946L17.5 2.47344L17 3.33946ZM20.6602 16.9997L19.7942 16.4997L20.6602 16.9997ZM6.99996 20.66L7.49996 19.7939L6.99996 20.66ZM3.33971 6.99972L4.20573 7.49972L3.33971 6.99972ZM15.0621 20.6959L14.5621 21.5619L15.0621 20.6959ZM16.072 2.86547L16.4803 1.95261L16.072 2.86547ZM11.9063 5.1696C11.3541 5.16714 10.9044 5.61286 10.9019 6.16514C10.8994 6.71742 11.3452 7.16712 11.8974 7.16958L11.9063 5.1696ZM19.9596 7.20548C20.5119 7.20794 20.9616 6.76222 20.9641 6.20994C20.9665 5.65766 20.5208 5.20796 19.9685 5.2055L19.9596 7.20548ZM10.7844 9.13383C10.2322 9.12471 9.77716 9.56498 9.76805 10.1172C9.75893 10.6694 10.1992 11.1244 10.7514 11.1336L10.7844 9.13383ZM21.0456 11.3034C21.5978 11.3125 22.0529 10.8723 22.062 10.3201C22.0711 9.76785 21.6308 9.31281 21.0786 9.3037L21.0456 11.3034ZM11.0165 12.7319C10.4643 12.7228 10.0092 13.1631 10.0001 13.7153C9.99098 14.2675 10.4313 14.7225 10.9835 14.7316L11.0165 12.7319ZM21.2777 14.9015C21.8299 14.9106 22.2849 14.4703 22.2941 13.9181C22.3032 13.3659 21.8629 12.9109 21.3107 12.9018L21.2777 14.9015ZM12.0528 16.8309C11.501 16.8559 11.0741 17.3234 11.0991 17.8751C11.1241 18.4268 11.5916 18.8538 12.1433 18.8288L12.0528 16.8309ZM20.2147 18.463C20.7665 18.438 21.1934 17.9704 21.1684 17.4187C21.1434 16.867 20.6759 16.44 20.1242 16.465L20.2147 18.463ZM12 7.99982H13H12ZM9.99998 9.99981V10.9998V9.99981ZM10.2726 9.98138L10.1376 8.99055L10.2726 9.98138ZM11.6467 17.4414L10.8701 16.8114L11.6467 17.4414ZM15.933 6.18754L15.9285 7.18753L15.933 6.18754ZM16.5 4.20549C20.8046 6.69077 22.2795 12.1951 19.7942 16.4997L21.5262 17.4997C24.5638 12.2385 22.7612 5.511 17.5 2.47344L16.5 4.20549ZM7.49996 19.7939C3.19533 17.3087 1.72045 11.8044 4.20573 7.49972L2.47368 6.49972C-0.563885 11.7609 1.23874 18.4884 6.49996 21.526L7.49996 19.7939ZM16.3984 20.257C16.1158 20.1306 15.8367 19.9883 15.5621 19.8298L14.5621 21.5619C14.8963 21.7548 15.2366 21.9283 15.5818 22.0827L16.3984 20.257ZM19.7942 16.4997C18.7913 18.2367 17.2992 19.5113 15.5918 20.2526L16.3884 22.0871C18.4756 21.1809 20.3018 19.6204 21.5262 17.4997L19.7942 16.4997ZM15.5918 20.2526C13.0626 21.3507 10.068 21.2766 7.49996 19.7939L6.49996 21.526C9.64003 23.3389 13.3029 23.4268 16.3884 22.0871L15.5918 20.2526ZM4.20573 7.49972C6.53257 3.46952 11.507 1.91922 15.6637 3.77833L16.4803 1.95261C11.3977 -0.320603 5.31829 1.57271 2.47368 6.49972L4.20573 7.49972ZM15.6637 3.77833C15.9463 3.90473 16.2254 4.04699 16.5 4.20549L17.5 2.47344C17.1658 2.28053 16.8255 2.10701 16.4803 1.95261L15.6637 3.77833ZM10.7514 11.1336L21.0456 11.3034L21.0786 9.3037L10.7844 9.13383L10.7514 11.1336ZM10.9835 14.7316L21.2777 14.9015L21.3107 12.9018L11.0165 12.7319L10.9835 14.7316ZM12.1433 18.8288L20.2147 18.463L20.1242 16.465L12.0528 16.8309L12.1433 18.8288ZM9.99998 8.99981C9.4477 8.99981 8.99999 8.5521 8.99999 7.99982H6.99999C6.99999 9.65667 8.34313 10.9998 9.99998 10.9998V8.99981ZM8.99999 7.99982C8.99999 7.44753 9.4477 6.99982 9.99998 6.99982V4.99982C8.34313 4.99982 6.99999 6.34296 6.99999 7.99982H8.99999ZM9.99998 6.99982C10.3172 6.99982 10.5996 7.14639 10.7844 7.37948L12.3516 6.13686C11.8037 5.44591 10.9536 4.99982 9.99998 4.99982V6.99982ZM10.7844 7.37948C10.9198 7.55017 11 7.76425 11 7.99982H13C13 7.29712 12.7571 6.64837 12.3516 6.13686L10.7844 7.37948ZM12.2679 7.53561C12.3167 7.45109 12.3667 7.36769 12.4177 7.28541L10.7183 6.23093C10.6561 6.33119 10.5952 6.43276 10.5359 6.53561L12.2679 7.53561ZM12.4177 7.28541C13.4162 5.67623 14.8456 4.48814 16.4703 3.78274L15.6737 1.9482C13.6881 2.81033 11.9383 4.26467 10.7183 6.23093L12.4177 7.28541ZM11 7.99982C11 8.50503 10.6244 8.92419 10.1376 8.99055L10.4077 10.9722C11.8721 10.7726 13 9.51876 13 7.99982H11ZM10.1376 8.99055C10.0931 8.99662 10.0472 8.99981 9.99998 8.99981V10.9998C10.1378 10.9998 10.2739 10.9905 10.4077 10.9722L10.1376 8.99055ZM9.70424 17.3675C8.87582 17.3675 8.20424 16.696 8.20424 15.8675H6.20424C6.20424 17.8005 7.77125 19.3675 9.70424 19.3675V17.3675ZM8.20424 15.8675C8.20424 15.0391 8.87582 14.3675 9.70424 14.3675V12.3675C7.77125 12.3675 6.20424 13.9345 6.20424 15.8675H8.20424ZM9.70424 14.3675C9.79807 14.3675 9.88903 14.376 9.97666 14.392L10.336 12.4246C10.1304 12.387 9.91915 12.3675 9.70424 12.3675V14.3675ZM9.97666 14.392C10.675 14.5196 11.2042 15.1328 11.2042 15.8675H13.2042C13.2042 14.1496 11.9675 12.7226 10.336 12.4246L9.97666 14.392ZM11.1468 13.2704C11.0053 12.2544 11.0362 11.2112 11.2513 10.1869L9.294 9.77584C9.03058 11.03 8.99312 12.3057 9.1659 13.5463L11.1468 13.2704ZM15.5621 19.8298C14.2725 19.0853 13.2388 18.0718 12.4885 16.9016L10.8049 17.9812C11.7236 19.414 12.9893 20.6538 14.5621 21.5619L15.5621 19.8298ZM11.2042 15.8675C11.2042 16.2264 11.0795 16.5533 10.8701 16.8114L12.4233 18.0714C12.9112 17.47 13.2042 16.7017 13.2042 15.8675H11.2042ZM10.8701 16.8114C10.5935 17.1524 10.1744 17.3675 9.70424 17.3675V19.3675C10.8026 19.3675 11.7832 18.8604 12.4233 18.0714L10.8701 16.8114ZM11.9019 6.16959C11.8974 7.16958 11.8974 7.16958 11.8975 7.16958C11.8975 7.16958 11.8975 7.16958 11.8975 7.16958C11.8976 7.16958 11.8976 7.16958 11.8977 7.16958C11.8977 7.16958 11.8978 7.16958 11.8979 7.16958C11.8991 7.16959 11.8977 7.16958 11.8992 7.16959C11.9008 7.16959 11.9018 7.1696 11.9045 7.16961C11.9092 7.16963 11.9163 7.16966 11.9254 7.1697C11.9437 7.16979 11.971 7.16991 12.0061 7.17006C12.0764 7.17038 12.1784 7.17083 12.3059 7.1714C12.5608 7.17253 12.9171 7.17412 13.3226 7.17593C14.1336 7.17954 15.1414 7.18402 15.9285 7.18753L15.9374 5.18755C15.1503 5.18404 14.1425 5.17956 13.3315 5.17595C12.926 5.17414 12.5697 5.17255 12.3148 5.17142C12.1874 5.17085 12.0852 5.1704 12.015 5.17008C11.9798 5.16993 11.9527 5.16981 11.9343 5.16972C11.9251 5.16968 11.9182 5.16965 11.9134 5.16963C11.9109 5.16962 11.9095 5.16961 11.9081 5.16961C11.9069 5.1696 11.9077 5.16961 11.9068 5.1696C11.906 5.1696 11.9072 5.1696 11.9065 5.1696C11.9064 5.1696 11.9064 5.1696 11.9064 5.1696C11.9063 5.1696 11.9063 5.1696 11.9019 6.16959ZM15.9285 7.18753C16.7156 7.19103 17.7234 7.19552 18.5344 7.19913C18.9399 7.20094 19.2962 7.20252 19.5511 7.20366C19.6786 7.20423 19.7807 7.20468 19.851 7.20499C19.8861 7.20515 19.9133 7.20527 19.9316 7.20535C19.9408 7.20539 19.9479 7.20543 19.9525 7.20545C19.9546 7.20546 19.9569 7.20547 19.9578 7.20547C19.9593 7.20548 19.958 7.20547 19.9592 7.20548C19.9592 7.20548 19.9593 7.20548 19.9594 7.20548C19.9594 7.20548 19.9595 7.20548 19.9595 7.20548C19.9595 7.20548 19.9596 7.20548 19.9596 7.20548C19.9596 7.20548 19.9596 7.20548 19.9641 6.20549C19.9685 5.2055 19.9685 5.2055 19.9685 5.2055C19.9685 5.2055 19.9684 5.2055 19.9684 5.2055C19.9683 5.2055 19.9682 5.2055 19.9681 5.2055C19.9676 5.20549 19.9675 5.20549 19.9667 5.20549C19.9655 5.20548 19.9638 5.20548 19.9614 5.20547C19.9567 5.20544 19.9498 5.20541 19.9405 5.20537C19.9221 5.20529 19.895 5.20517 19.8599 5.20501C19.7896 5.2047 19.6875 5.20425 19.56 5.20368C19.3051 5.20254 18.9488 5.20096 18.5433 5.19915C17.7323 5.19554 16.7245 5.19105 15.9374 5.18755L15.9285 7.18753Z" fill="black"/>
</svg>
