<svg width="1257" height="602" viewBox="0 0 1257 602" fill="none" xmlns="http://www.w3.org/2000/svg">
<path d="M538.5 601.5H1257V0C1030.33 16 951.5 553 538.5 601.5Z" fill="#FFAF13" fill-opacity="0.1"/>
<path d="M1082 601H0.00012207V0C341.341 15.9867 214 368 1082 601Z" fill="#AFBE00" fill-opacity="0.1"/>
<mask id="mask0_871_6344" style="mask-type:alpha" maskUnits="userSpaceOnUse" x="0" y="1" width="1082" height="601">
<path d="M1082 602H0.00012207V1C341.341 16.9867 214 369 1082 602Z" fill="#AFBE00"/>
</mask>
<g mask="url(#mask0_871_6344)">
<path d="M-6 688V193C-6 403.891 567.333 610.871 854 688H-6Z" fill="#AFBE00" fill-opacity="0.1"/>
</g>
<path d="M1138 332.5L1112.5 358" stroke="#AFBE00" stroke-opacity="0.2" stroke-width="12" stroke-linecap="round"/>
<path d="M1151.5 456L1126 481.5" stroke="#AFBE00" stroke-opacity="0.2" stroke-width="12" stroke-linecap="round"/>
<path d="M1072.5 363L1047 388.5" stroke="#AFBE00" stroke-opacity="0.2" stroke-width="12" stroke-linecap="round"/>
<path d="M1223.5 79L1198 104.5" stroke="#AFBE00" stroke-opacity="0.2" stroke-width="12" stroke-linecap="round"/>
<path d="M886.5 501L861 526.5" stroke="#AFBE00" stroke-opacity="0.2" stroke-width="12" stroke-linecap="round"/>
<path d="M1029.5 561L1004 586.5" stroke="#AFBE00" stroke-opacity="0.2" stroke-width="12" stroke-linecap="round"/>
<path d="M1210.5 535L1185 560.5" stroke="#AFBE00" stroke-opacity="0.2" stroke-width="12" stroke-linecap="round"/>
<path d="M1220.5 363L1195 388.5" stroke="#AFBE00" stroke-opacity="0.2" stroke-width="12" stroke-linecap="round"/>
<path d="M1124.5 206L1099 231.5" stroke="#AFBE00" stroke-opacity="0.2" stroke-width="12" stroke-linecap="round"/>
<path d="M735.5 569L710 594.5" stroke="#AFBE00" stroke-opacity="0.2" stroke-width="12" stroke-linecap="round"/>
<path d="M301.5 413.5L317 429" stroke="#FFAF13" stroke-opacity="0.2" stroke-width="12" stroke-linecap="round"/>
<path d="M286 501L301.5 516.5" stroke="#FFAF13" stroke-opacity="0.2" stroke-width="12" stroke-linecap="round"/>
<path d="M48 42L63.5 57.5" stroke="#FFAF13" stroke-opacity="0.2" stroke-width="12" stroke-linecap="round"/>
<path d="M398 478L413.5 493.5" stroke="#FFAF13" stroke-opacity="0.2" stroke-width="12" stroke-linecap="round"/>
<path d="M573 494L588.5 509.5" stroke="#FFAF13" stroke-opacity="0.2" stroke-width="12" stroke-linecap="round"/>
<path d="M557 554L572.5 569.5" stroke="#FFAF13" stroke-opacity="0.2" stroke-width="12" stroke-linecap="round"/>
<path d="M681 485L696.5 500.5" stroke="#FFAF13" stroke-opacity="0.2" stroke-width="12" stroke-linecap="round"/>
<path d="M398 394L413.5 409.5" stroke="#FFAF13" stroke-opacity="0.2" stroke-width="12" stroke-linecap="round"/>
<path d="M204 369L219.5 384.5" stroke="#FFAF13" stroke-opacity="0.2" stroke-width="12" stroke-linecap="round"/>
<path d="M250 278L265.5 293.5" stroke="#FFAF13" stroke-opacity="0.2" stroke-width="12" stroke-linecap="round"/>
<path d="M435 562L450.5 577.5" stroke="#FFAF13" stroke-opacity="0.2" stroke-width="12" stroke-linecap="round"/>
<path d="M184 116L199.5 131.5" stroke="#FFAF13" stroke-opacity="0.2" stroke-width="12" stroke-linecap="round"/>
<path d="M108 258L123.5 273.5" stroke="#FFAF13" stroke-opacity="0.2" stroke-width="12" stroke-linecap="round"/>
<path d="M72 397L87.5 412.5" stroke="#FFAF13" stroke-opacity="0.2" stroke-width="12" stroke-linecap="round"/>
<path d="M56 502L71.5 517.5" stroke="#FFAF13" stroke-opacity="0.2" stroke-width="12" stroke-linecap="round"/>
</svg>
