<svg width="24" height="24" viewBox="0 0 24 24" fill="none" xmlns="http://www.w3.org/2000/svg">
<path d="M15 21.8818V15.8818C15 14.7773 14.1046 13.8818 13 13.8818H11C9.89543 13.8818 9 14.7773 9 15.8818V21.8818"  stroke-width="2" stroke-linecap="round"/>
<path d="M8.625 19.8818H5C3.89543 19.8818 3 18.9864 3 17.8818V9.88184C3 5.46356 6.58172 1.88184 11 1.88184H13C17.4183 1.88184 21 5.46356 21 9.88184V17.8818C21 18.9864 20.1046 19.8818 19 19.8818H15.375"  stroke-width="2"/>
<path d="M4 9.88184H20"  stroke-width="2"/>
<path d="M18 19.8818V21.8818"  stroke-width="2" stroke-linecap="round"/>
<path d="M6 19.8818V21.8818"  stroke-width="2" stroke-linecap="round"/>
<path d="M10 17.8818H14"  stroke-width="2" stroke-linecap="round"/>
</svg>
