<svg width="15" height="18" viewBox="0 0 15 18" fill="none" xmlns="http://www.w3.org/2000/svg">
<path d="M1.40918 16C1.40918 17.1 2.30918 18 3.40918 18H11.4092C12.5092 18 13.4092 17.1 13.4092 16V6C13.4092 4.9 12.5092 4 11.4092 4H3.40918C2.30918 4 1.40918 4.9 1.40918 6V16ZM4.40918 6H10.4092C10.9592 6 11.4092 6.45 11.4092 7V15C11.4092 15.55 10.9592 16 10.4092 16H4.40918C3.85918 16 3.40918 15.55 3.40918 15V7C3.40918 6.45 3.85918 6 4.40918 6ZM10.9092 1L10.1992 0.29C10.0192 0.11 9.75918 0 9.49918 0H5.31918C5.05918 0 4.79918 0.11 4.61918 0.29L3.90918 1H1.40918C0.85918 1 0.40918 1.45 0.40918 2C0.40918 2.55 0.85918 3 1.40918 3H13.4092C13.9592 3 14.4092 2.55 14.4092 2C14.4092 1.45 13.9592 1 13.4092 1H10.9092Z" fill="white"/>
</svg>
