<svg width="32" height="32" viewBox="0 0 32 32" fill="none" xmlns="http://www.w3.org/2000/svg">
<path d="M10.0278 23.4444C10.0278 24.575 10.9528 25.5 12.0833 25.5H20.3056C21.4361 25.5 22.3611 24.575 22.3611 23.4444V13.1667C22.3611 12.0361 21.4361 11.1111 20.3056 11.1111H12.0833C10.9528 11.1111 10.0278 12.0361 10.0278 13.1667V23.4444ZM13.1111 13.1667H19.2778C19.8431 13.1667 20.3056 13.6292 20.3056 14.1944V22.4167C20.3056 22.9819 19.8431 23.4444 19.2778 23.4444H13.1111C12.5458 23.4444 12.0833 22.9819 12.0833 22.4167V14.1944C12.0833 13.6292 12.5458 13.1667 13.1111 13.1667ZM19.7917 8.02778L19.0619 7.29806C18.8769 7.11306 18.6097 7 18.3425 7H14.0464C13.7792 7 13.5119 7.11306 13.3269 7.29806L12.5972 8.02778H10.0278C9.4625 8.02778 9 8.49028 9 9.05556C9 9.62083 9.4625 10.0833 10.0278 10.0833H22.3611C22.9264 10.0833 23.3889 9.62083 23.3889 9.05556C23.3889 8.49028 22.9264 8.02778 22.3611 8.02778H19.7917Z" fill="white"/>
</svg>
