<svg width="32" height="32" viewBox="0 0 32 32" fill="none" xmlns="http://www.w3.org/2000/svg">
<path d="M10.0338 23.5452H22.4427C22.7047 23.5453 22.9569 23.6449 23.1483 23.8237C23.3398 24.0026 23.4562 24.2475 23.4741 24.5088C23.4919 24.7702 23.4099 25.0287 23.2445 25.2319C23.0792 25.4351 22.8429 25.568 22.5833 25.6038L22.4427 25.6134H10.0338C9.77176 25.6133 9.51956 25.5138 9.32812 25.3349C9.13668 25.1561 9.02026 24.9112 9.00241 24.6498C8.98455 24.3884 9.06658 24.13 9.23191 23.9268C9.39725 23.7235 9.63357 23.5906 9.89313 23.5549L10.0338 23.5452H22.4427H10.0338ZM16.0976 7.00965L16.2382 7C16.4881 7.00001 16.7295 7.09051 16.9179 7.25475C17.1062 7.419 17.2287 7.64588 17.2627 7.89344L17.2723 8.03408V18.6341L20.3814 15.5263C20.5568 15.351 20.7893 15.2446 21.0365 15.2264C21.2838 15.2081 21.5294 15.2794 21.7285 15.427L21.8443 15.5263C22.0196 15.7017 22.126 15.9341 22.1443 16.1814C22.1625 16.4287 22.0913 16.6742 21.9436 16.8734L21.8443 16.9892L16.969 21.8631C16.7939 22.0383 16.5618 22.1448 16.3148 22.1632C16.0679 22.1817 15.8225 22.1109 15.6233 21.9638L15.5075 21.8631L10.6321 16.9892C10.4471 16.8047 10.3388 16.557 10.329 16.2958C10.3192 16.0347 10.4086 15.7796 10.5792 15.5817C10.7499 15.3838 10.9891 15.2578 11.2488 15.2292C11.5085 15.2005 11.7695 15.2712 11.9792 15.427L12.095 15.5263L15.2042 18.6368V8.03408C15.2042 7.78419 15.2947 7.54276 15.4589 7.35444C15.6231 7.16612 15.85 7.04364 16.0976 7.00965L16.2382 7L16.0976 7.00965Z" fill="white"/>
</svg>
