<svg viewBox="0 0 15 15" fill="none" xmlns="http://www.w3.org/2000/svg">
<path d="M13.9521 16.1948H1.31558C1.07619 16.1948 0.846612 16.2899 0.677341 16.4592C0.508069 16.6284 0.412973 16.858 0.412973 17.0974C0.412973 17.3368 0.508069 17.5664 0.677341 17.7356C0.846612 17.9049 1.07619 18 1.31558 18H13.9521C14.1915 18 14.421 17.9049 14.5903 17.7356C14.7596 17.5664 14.8547 17.3368 14.8547 17.0974C14.8547 16.858 14.7596 16.6284 14.5903 16.4592C14.421 16.2899 14.1915 16.1948 13.9521 16.1948ZM1.31558 14.3896H1.39681L5.16068 14.0466C5.57299 14.0055 5.95862 13.8238 6.25284 13.5321L14.3763 5.40864C14.6916 5.07554 14.862 4.63105 14.8501 4.17255C14.8383 3.71405 14.6452 3.27894 14.3131 2.96257L11.84 0.48943C11.5172 0.186241 11.0942 0.012275 10.6515 0.000625288C10.2088 -0.0110245 9.77732 0.140455 9.43904 0.426248L1.31558 8.54971C1.02383 8.84393 0.842167 9.22955 0.801094 9.64186L0.412973 13.4057C0.400814 13.5379 0.417969 13.6712 0.463213 13.796C0.508458 13.9208 0.580679 14.0341 0.674729 14.1278C0.759069 14.2115 0.859092 14.2777 0.969064 14.3226C1.07903 14.3675 1.19679 14.3903 1.31558 14.3896ZM10.5854 1.75308L13.0495 4.2172L11.2443 5.97728L8.82527 3.55829L10.5854 1.75308ZM2.55215 9.7953L7.63383 4.74973L10.0709 7.18677L5.01627 12.2414L2.30845 12.4941L2.55215 9.7953Z" fill="white"/>
</svg>
