<svg width="32" height="32" viewBox="0 0 32 32" fill="none" xmlns="http://www.w3.org/2000/svg">
<path d="M22.5429 23.1948H9.9064C9.66701 23.1948 9.43743 23.2899 9.26816 23.4592C9.09889 23.6284 9.00379 23.858 9.00379 24.0974C9.00379 24.3368 9.09889 24.5664 9.26816 24.7356C9.43743 24.9049 9.66701 25 9.9064 25H22.5429C22.7823 25 23.0119 24.9049 23.1811 24.7356C23.3504 24.5664 23.4455 24.3368 23.4455 24.0974C23.4455 23.858 23.3504 23.6284 23.1811 23.4592C23.0119 23.2899 22.7823 23.1948 22.5429 23.1948ZM9.9064 21.3896H9.98763L13.7515 21.0466C14.1638 21.0055 14.5494 20.8238 14.8437 20.5321L22.9671 12.4086C23.2824 12.0755 23.4528 11.631 23.441 11.1725C23.4291 10.714 23.236 10.2789 22.9039 9.96257L20.4308 7.48943C20.108 7.18624 19.685 7.01228 19.2424 7.00063C18.7997 6.98898 18.3681 7.14045 18.0299 7.42625L9.9064 15.5497C9.61465 15.8439 9.43299 16.2296 9.39191 16.6419L9.00379 20.4057C8.99163 20.5379 9.00879 20.6712 9.05403 20.796C9.09928 20.9208 9.1715 21.0341 9.26555 21.1278C9.34989 21.2115 9.44991 21.2777 9.55988 21.3226C9.66986 21.3675 9.78761 21.3903 9.9064 21.3896ZM19.1762 8.75308L21.6403 11.2172L19.8351 12.9773L17.4161 10.5583L19.1762 8.75308ZM11.143 16.7953L16.2246 11.7497L18.6617 14.1868L13.6071 19.2414L10.8993 19.4941L11.143 16.7953Z" fill="white"/>
</svg>
