<svg width="240" height="215" viewBox="0 0 240 215" fill="none" xmlns="http://www.w3.org/2000/svg">
<path d="M3 160.5H20"  stroke-width="5" stroke-linecap="round"/>
<path d="M94 156.5H111"  stroke-width="5" stroke-linecap="round"/>
<path d="M86 18.5H103"  stroke-width="5" stroke-linecap="round"/>
<path d="M204 197.5H221"  stroke-width="5" stroke-linecap="round"/>
<path d="M12.5 148V173"  stroke-width="5" stroke-linecap="round"/>
<path d="M103.5 144V169"  stroke-width="5" stroke-linecap="round"/>
<path d="M95.5 6V31"  stroke-width="5" stroke-linecap="round"/>
<path d="M213.5 185V210"  stroke-width="5" stroke-linecap="round"/>
<path d="M234 211.996H25V33.4957C25 -74 118 135.501 153 135.499C188 135.497 234 73.4981 234 115.996V211.996Z"  stroke-width="5"/>
<path d="M180.5 45.9999C162.5 39.4999 131.3 93.1014 130.5 209.501M137.5 209.501C144 168.501 165.3 86.5005 198.5 86.5005"  stroke-width="5" stroke-linecap="round"/>
<circle cx="77.5" cy="109.5" r="8.5"  stroke-width="4"/>
<circle cx="134.5" cy="36.5" r="8.5"  stroke-width="4"/>
<circle cx="207.5" cy="143.5" r="8.5"  stroke-width="4"/>
<circle cx="229.5" cy="65.5" r="8.5"  stroke-width="4"/>
</svg>
