<svg width="296" height="264" viewBox="0 0 296 264" fill="none" xmlns="http://www.w3.org/2000/svg">
<path d="M6 223H135" stroke="#E2E7B3" stroke-width="4" stroke-linecap="round"/>
<path d="M165 223H294" stroke="#E2E7B3" stroke-width="4" stroke-linecap="round"/>
<path d="M148 208C141 208.167 127 206.4 127 198C127 187.5 148 196 148 208Z" stroke="#E2E7B3" stroke-width="4" stroke-linecap="round"/>
<path d="M149 207.751C156 207.918 170 206.151 170 197.751C170 187.251 149 195.751 149 207.751Z" stroke="#E2E7B3" stroke-width="4" stroke-linecap="round"/>
<path d="M2 237.5H294" stroke="#E2E7B3" stroke-width="4" stroke-linecap="round"/>
<path d="M9 249L53 249" stroke="#E2E7B3" stroke-width="4" stroke-linecap="round"/>
<path d="M69 249H287" stroke="#E2E7B3" stroke-width="4" stroke-linecap="round"/>
<path d="M24 262H242" stroke="#E2E7B3" stroke-width="4" stroke-linecap="round"/>
<path d="M251 262H271" stroke="#E2E7B3" stroke-width="4" stroke-linecap="round"/>
<path d="M148 209L148 236" stroke="#E2E7B3" stroke-width="4" stroke-linecap="round"/>
<path d="M57 196.5H68.5" stroke="#E2E7B3" stroke-width="4" stroke-linecap="round"/>
<path d="M201 166.5H212.5" stroke="#E2E7B3" stroke-width="4" stroke-linecap="round"/>
<path d="M237 202.5H248.5" stroke="#E2E7B3" stroke-width="4" stroke-linecap="round"/>
<path d="M94 146.5H105.5" stroke="#E2E7B3" stroke-width="4" stroke-linecap="round"/>
<path d="M63 185L63 206" stroke="#E2E7B3" stroke-width="4" stroke-linecap="round"/>
<path d="M207 155L207 176" stroke="#E2E7B3" stroke-width="4" stroke-linecap="round"/>
<path d="M243 191L243 212" stroke="#E2E7B3" stroke-width="4" stroke-linecap="round"/>
<path d="M100 135L100 156" stroke="#E2E7B3" stroke-width="4" stroke-linecap="round"/>
<circle cx="25.5" cy="173.5" r="3.5" stroke="#E2E7B3" stroke-width="4"/>
<circle cx="185.5" cy="129.5" r="3.5" stroke="#E2E7B3" stroke-width="4"/>
<circle cx="241.5" cy="105.5" r="3.5" stroke="#E2E7B3" stroke-width="4"/>
<circle cx="63.5" cy="89.5" r="3.5" stroke="#E2E7B3" stroke-width="4"/>
<circle cx="247" cy="16" r="14" stroke="#E2E7B3" stroke-width="4"/>
</svg>
