<svg  viewBox="0 0 219 159" fill="none" xmlns="http://www.w3.org/2000/svg">
<path d="M26 67.5V127M86 67.5V127M26.5 110H86M46 127V89.5H65M65 90V127.5M46 119.5H65M46 101H65M11 128.5H217.5M196 117L185 128M197 121L190 128M178 120.5L171 127.5M171 120.5L164 127.5M143 117L132 128M105 117L94 128M167 113L151.959 128M115.041 113L100 128M132 120.5L125 127.5M9 83L70 22M100 81L41 22M75 41.5V50M204 90V98.5M168 2V10.5M56 149V157.5M79.5 46H71M208.5 94.5H200M172.5 6.5L164 6.5M60.5 153.5H52M175 86.5C175 88.433 173.433 90 171.5 90C169.567 90 168 88.433 168 86.5C168 84.567 169.567 83 171.5 83C173.433 83 175 84.567 175 86.5ZM110 148.5C110 150.433 108.433 152 106.5 152C104.567 152 103 150.433 103 148.5C103 146.567 104.567 145 106.5 145C108.433 145 110 146.567 110 148.5ZM190 25.5C190 27.433 188.433 29 186.5 29C184.567 29 183 27.433 183 25.5C183 23.567 184.567 22 186.5 22C188.433 22 190 23.567 190 25.5ZM9 108.5C9 110.433 7.433 112 5.5 112C3.567 112 2 110.433 2 108.5C2 106.567 3.567 105 5.5 105C7.433 105 9 106.567 9 108.5ZM209 116.5C209 118.433 207.433 120 205.5 120C203.567 120 202 118.433 202 116.5C202 114.567 203.567 113 205.5 113C207.433 113 209 114.567 209 116.5ZM100 38.5C100 40.433 98.433 42 96.5 42C94.567 42 93 40.433 93 38.5C93 36.567 94.567 35 96.5 35C98.433 35 100 36.567 100 38.5Z"  stroke-width="3" stroke-linecap="round"/>
</svg>
