<svg width="256" height="256" viewBox="0 0 256 256" fill="none" xmlns="http://www.w3.org/2000/svg">
<path fill-rule="evenodd" clip-rule="evenodd" d="M236 128C236 149.36 229.666 170.241 217.799 188.002C205.932 205.762 189.064 219.605 169.33 227.779C149.595 235.953 127.88 238.092 106.93 233.925C85.9803 229.758 66.7366 219.472 51.6325 204.368C36.5284 189.263 26.2424 170.02 22.0752 149.07C17.908 128.12 20.0468 106.405 28.2211 86.6702C36.3953 66.9358 50.238 50.0685 67.9985 38.2013C85.759 26.3341 106.64 20 128 20C156.634 20.0318 184.085 31.4205 204.333 51.6675C224.58 71.9146 235.968 99.3664 236 128ZM145 128L168.49 104.49L168.51 104.48C170.764 102.226 172.031 99.1681 172.031 95.98C172.031 92.7919 170.764 89.7343 168.51 87.48C166.256 85.2257 163.198 83.9592 160.01 83.9592C156.822 83.9592 153.764 85.2257 151.51 87.48L128 111L104.51 87.49C102.256 85.2357 99.1982 83.9692 96.01 83.9692C92.8219 83.9692 89.7644 85.2357 87.51 87.49C85.2557 89.7443 83.9892 92.8019 83.9892 95.99C83.9892 97.5686 84.3002 99.1317 84.9043 100.59C85.5084 102.049 86.3938 103.374 87.51 104.49L111 128L87.49 151.52C85.2357 153.774 83.9692 156.832 83.9692 160.02C83.9692 163.208 85.2357 166.266 87.49 168.52C89.7444 170.774 92.8019 172.041 95.99 172.041C99.1782 172.041 102.236 170.774 104.49 168.52L128 145L151.52 168.51C153.774 170.764 156.832 172.031 160.02 172.031C163.208 172.031 166.266 170.764 168.52 168.51C170.774 166.256 172.041 163.198 172.041 160.01C172.041 156.822 170.774 153.764 168.52 151.51L145 128Z" />
</svg>
