<svg viewBox="0 0 32 32" fill="none" xmlns="http://www.w3.org/2000/svg">
<path d="M10.6339 25.6051C12.2212 26.4939 14.0514 27.0006 16 27.0006C22.0751 27.0006 27 22.0757 27 16.0006C27 12.2935 25.5 8.5 22.3564 7.02197L22.339 7.00965C18 5.5 15.5217 8.44404 15.5217 16.4788C15.5217 23.1459 13.4412 26.6906 10.6339 25.6051ZM10.6339 25.6051C7.27227 23.723 5 20.1271 5 16.0006M10.6339 25.6051C10.058 25.3825 9.45147 24.965 8.82609 24.3396M14 24C12.1667 23.3333 9 19.9 9 17.5M15 21C14.1667 20.8333 13 20.1 13 18.5"  stroke-width="2" stroke-linecap="round"/>
</svg>
