<svg viewBox="0 0 50 50" fill="none" xmlns="http://www.w3.org/2000/svg">
<path d="M17.0401 38.3899L25.5975 37.9029C29.1019 37.9029 32.0749 35.628 33.1204 32.4745M17.0401 38.3899L17.6737 19.4139C17.6737 15.0377 21.2213 11.4901 25.5975 11.4901L33.5214 11.4901M17.0401 38.3899C18.7029 37.7496 21.6639 35.7593 23.6293 32.4745M33.5214 11.4901C31.7127 12.4817 28.6653 15.0442 26.9239 19.004M33.5214 11.4901L33.5214 19.004M25.5975 25.343C25.5975 22.9453 26.1224 20.8266 26.9239 19.004M25.5975 25.343L33.5214 25.343M25.5975 25.343C25.5975 28.1608 24.7857 30.5417 23.6293 32.4745M26.9239 19.004L33.5214 19.004M33.5214 19.004L33.5214 25.343M33.5214 25.343L33.5214 29.979C33.5214 30.8509 33.3806 31.6899 33.1204 32.4745M23.6293 32.4745L33.1204 32.4745" stroke="white" stroke-width="2"/>
</svg>
