<svg width="24" height="24" viewBox="0 0 24 24" fill="none" xmlns="http://www.w3.org/2000/svg">
<path d="M17.292 4.80085C15.38 4.82214 13.4469 5.3207 11.6731 6.34483C6.16534 9.52473 4.27825 16.5674 7.45815 22.0752C7.56649 22.2628 7.67933 22.4463 7.79643 22.6255M17.292 4.80085C17.4091 4.98005 17.5219 5.16351 17.6303 5.35118C18.501 6.85936 18.9918 8.48264 19.1324 10.1102M17.292 4.80085L14.4975 10.0465M7.79643 22.6255C9.7084 22.6042 11.6415 22.1057 13.4153 21.0815C16.2166 19.4642 18.0813 16.8476 18.8191 13.942M7.79643 22.6255L10.3236 17.8816M14.4975 10.0465L19.1324 10.1102M14.4975 10.0465L12.4223 13.942M19.1324 10.1102C19.2441 11.4033 19.1347 12.6991 18.8191 13.942M12.4223 13.942L18.8191 13.942M12.4223 13.942L10.3236 17.8816M10.3236 17.8816L17 18.0005"  stroke-width="2"/>
</svg>
