<svg  viewBox="0 0 24 24" xmlns="http://www.w3.org/2000/svg">
<path d="M3 6.59995C3 5.64518 3.37928 4.72952 4.0544 4.0544C4.72952 3.37928 5.64518 3 6.59995 3H17.3998C18.3546 3 19.2702 3.37928 19.9453 4.0544C20.6205 4.72952 20.9997 5.64518 20.9997 6.59995V17.3998C20.9997 18.3546 20.6205 19.2702 19.9453 19.9453C19.2702 20.6205 18.3546 20.9997 17.3998 20.9997H6.59995C5.64518 20.9997 4.72952 20.6205 4.0544 19.9453C3.37928 19.2702 3 18.3546 3 17.3998V6.59995Z" stroke="#CFD491" stroke-width="1.79997" stroke-linecap="round" stroke-linejoin="round"/>
<path d="M8.84958 11.0995C10.0922 11.0995 11.0995 10.0922 11.0995 8.84958C11.0995 7.60695 10.0922 6.59961 8.84958 6.59961C7.60695 6.59961 6.59961 7.60695 6.59961 8.84958C6.59961 10.0922 7.60695 11.0995 8.84958 11.0995Z" stroke="#CFD491" stroke-width="1.79997" stroke-linecap="round" stroke-linejoin="round"/>
<path d="M14.2729 12.5588L6.59961 20.9997H17.5191C18.4422 20.9997 19.3274 20.6331 19.9801 19.9804C20.6327 19.3277 20.9994 18.4425 20.9994 17.5195V17.3998C20.9994 16.9804 20.8419 16.8193 20.5584 16.5088L16.9315 12.5534C16.7624 12.369 16.5568 12.2218 16.3277 12.1213C16.0986 12.0209 15.8511 11.9692 15.601 11.9697C15.3508 11.9702 15.1035 12.0229 14.8749 12.1243C14.6462 12.2257 14.4412 12.3737 14.2729 12.5588V12.5588Z" stroke="#CFD491" stroke-width="1.79997" stroke-linecap="round" stroke-linejoin="round"/>
</svg>
