<svg viewBox="0 0 21 18" fill="none" xmlns="http://www.w3.org/2000/svg">
<path d="M5.99999 7.39286V10.6071C5.99999 11.1397 5.56827 11.5714 5.0357 11.5714H0.964286C0.431719 11.5714 0 11.1397 0 10.6071V7.39286C0 6.86029 0.431719 6.42857 0.964286 6.42857H5.0357C5.56827 6.42857 5.99999 6.86029 5.99999 7.39286ZM0 13.8214V17.0357C0 17.5683 0.431719 18 0.964286 18H5.0357C5.56827 18 5.99999 17.5683 5.99999 17.0357V13.8214C5.99999 13.2889 5.56827 12.8571 5.0357 12.8571H0.964286C0.431719 12.8571 0 13.2889 0 13.8214ZM5.0357 0H0.964286C0.431719 0 0 0.431719 0 0.964286V4.17857C0 4.71114 0.431719 5.14286 0.964286 5.14286H5.0357C5.56827 5.14286 5.99999 4.71114 5.99999 4.17857V0.964286C5.99999 0.431719 5.56827 0 5.0357 0ZM8.24999 18H19.6071C20.1397 18 20.5714 17.5683 20.5714 17.0357V13.8214C20.5714 13.2889 20.1397 12.8571 19.6071 12.8571H8.24999C7.71742 12.8571 7.2857 13.2889 7.2857 13.8214V17.0357C7.2857 17.5683 7.71742 18 8.24999 18ZM7.2857 0.964286V4.17857C7.2857 4.71114 7.71742 5.14286 8.24999 5.14286H19.6071C20.1397 5.14286 20.5714 4.71114 20.5714 4.17857V0.964286C20.5714 0.431719 20.1397 0 19.6071 0H8.24999C7.71742 0 7.2857 0.431719 7.2857 0.964286ZM8.24999 11.5714H19.6071C20.1397 11.5714 20.5714 11.1397 20.5714 10.6071V7.39286C20.5714 6.86029 20.1397 6.42857 19.6071 6.42857H8.24999C7.71742 6.42857 7.2857 6.86029 7.2857 7.39286V10.6071C7.2857 11.1397 7.71742 11.5714 8.24999 11.5714Z" />
</svg>
