<svg  viewBox="0 0 1440 1024" fill="none" xmlns="http://www.w3.org/2000/svg">
<g clip-path="url(#clip0_1070_8183)">
<rect width="1440" height="1024" rx="10" fill="white"/>
<path d="M309 576C364.6 884 609.5 981.667 725 992" stroke="#AFBE00" stroke-width="35" stroke-linecap="round"/>
<path d="M441.484 663.886C603.3 931.787 866.928 935.664 978.515 904.114" stroke="#808A07" stroke-width="35" stroke-linecap="round"/>
<path d="M450.952 503.096C569.126 792.906 828.942 837.743 944.079 823.935" stroke="#AFBE00" stroke-width="35" stroke-linecap="round"/>
<path d="M1062 715.144C1180.17 1004.95 1439.99 1049.79 1555.13 1035.98" stroke="#808A07" stroke-width="35" stroke-linecap="round"/>
<path d="M1086.64 463.263C1123.35 774.081 1361.83 886.505 1476.49 903.865" stroke="#AFBE00" stroke-width="35" stroke-linecap="round"/>
<path d="M1232 490.438C1322.36 790.089 1576.8 859.191 1692.72 856.286" stroke="#AFBE00" stroke-width="35" stroke-linecap="round"/>
<path d="M-325 515.438C-234.64 815.089 19.7995 884.191 135.724 881.286" stroke="#808A07" stroke-width="35" stroke-linecap="round"/>
<path d="M-325 742.431C-148.776 1001.08 114.669 990.537 224.364 952.933" stroke="#AFBE00" stroke-width="35" stroke-linecap="round"/>
<path d="M-279.854 336C-234.015 645.603 7.6765 750.96 122.792 764.939" stroke="#AFBE00" stroke-width="35" stroke-linecap="round"/>
<path d="M-242 959C-24.4 1176.6 267 1070.67 385.5 990.5" stroke="#D4E234" stroke-width="42" stroke-linecap="round"/>
<path d="M821.038 815C939.657 1098.95 1249.45 1111.66 1389.53 1082.53" stroke="#D4E234" stroke-width="42" stroke-linecap="round"/>
<path d="M-293 849.042C-35.8515 1018.08 228.067 855.345 327.883 752.848" stroke="#D4E234" stroke-width="42" stroke-linecap="round"/>
<path d="M953 722.042C1210.15 891.081 1474.07 728.345 1573.88 625.848" stroke="#D4E234" stroke-width="42" stroke-linecap="round"/>
<path d="M153 628.5L112 662.5" stroke="#FFAF13" stroke-opacity="0.9" stroke-width="42" stroke-linecap="round"/>
<path d="M192 500L151 534" stroke="#FFAF13" stroke-opacity="0.9" stroke-width="42" stroke-linecap="round"/>
<path d="M192 765L151 799" stroke="#FFAF13" stroke-opacity="0.9" stroke-width="42" stroke-linecap="round"/>
<path d="M309 876L268 910" stroke="#FFAF13" stroke-opacity="0.9" stroke-width="42" stroke-linecap="round"/>
<path d="M395.385 525.798L417.615 574.201" stroke="#FFAF13" stroke-opacity="0.9" stroke-width="42" stroke-linecap="round"/>
<path d="M63.6116 541L85.8415 589.403" stroke="#FFAF13" stroke-opacity="0.9" stroke-width="42" stroke-linecap="round"/>
<path d="M494.612 393L516.841 441.402" stroke="#FFAF13" stroke-opacity="0.9" stroke-width="42" stroke-linecap="round"/>
<path d="M825.612 606L847.841 654.403" stroke="#FFAF13" stroke-opacity="0.9" stroke-width="42" stroke-linecap="round"/>
<path d="M943.612 742L965.841 790.403" stroke="#FFAF13" stroke-opacity="0.9" stroke-width="42" stroke-linecap="round"/>
<path d="M1278.61 228L1300.84 276.403" stroke="#FFAF13" stroke-opacity="0.9" stroke-width="42" stroke-linecap="round"/>
<path d="M106.612 425L128.841 473.403" stroke="#FFAF13" stroke-opacity="0.9" stroke-width="42" stroke-linecap="round"/>
<path d="M941.612 476L963.841 524.403" stroke="#FFAF13" stroke-opacity="0.9" stroke-width="42" stroke-linecap="round"/>
<path d="M1242.61 353L1264.84 401.402" stroke="#FFAF13" stroke-opacity="0.9" stroke-width="42" stroke-linecap="round"/>
<path d="M325.612 927L347.841 975.403" stroke="#FFAF13" stroke-opacity="0.9" stroke-width="42" stroke-linecap="round"/>
<path d="M640 550L599 584" stroke="#FFAF13" stroke-opacity="0.9" stroke-width="42" stroke-linecap="round"/>
<path d="M599 343L558 377" stroke="#FFAF13" stroke-opacity="0.9" stroke-width="42" stroke-linecap="round"/>
<path d="M579 468L538 502" stroke="#FFAF13" stroke-opacity="0.9" stroke-width="42" stroke-linecap="round"/>
<path d="M889 684L848 718" stroke="#FFAF13" stroke-opacity="0.9" stroke-width="42" stroke-linecap="round"/>
<path d="M1020 550L979 584" stroke="#FFAF13" stroke-opacity="0.9" stroke-width="42" stroke-linecap="round"/>
<path d="M1041 434L1000 468" stroke="#FFAF13" stroke-opacity="0.9" stroke-width="42" stroke-linecap="round"/>
<path d="M1350 326L1309 360" stroke="#FFAF13" stroke-opacity="0.9" stroke-width="42" stroke-linecap="round"/>
<path d="M1401 567L1360 601" stroke="#FFAF13" stroke-opacity="0.9" stroke-width="42" stroke-linecap="round"/>
<path d="M923 565L882 599" stroke="#FFAF13" stroke-opacity="0.9" stroke-width="42" stroke-linecap="round"/>
<path d="M1082 887L1041 921" stroke="#FFAF13" stroke-opacity="0.9" stroke-width="42" stroke-linecap="round"/>
<path d="M1021 815L980 849" stroke="#FFAF13" stroke-opacity="0.9" stroke-width="42" stroke-linecap="round"/>
<path d="M1232 567L1191 601" stroke="#FFAF13" stroke-opacity="0.9" stroke-width="42" stroke-linecap="round"/>
<path d="M1309 434L1268 468" stroke="#FFAF13" stroke-opacity="0.9" stroke-width="42" stroke-linecap="round"/>
</g>
<defs>
<clipPath id="clip0_1070_8183">
<rect width="1440" height="1024" rx="10" fill="white"/>
</clipPath>
</defs>
</svg>
