<svg width="24" height="24" viewBox="0 0 24 24" fill="none" xmlns="http://www.w3.org/2000/svg">
<path d="M12 17.8818C13.6569 17.8818 15 16.5387 15 14.8818C15 13.225 13.6569 11.8818 12 11.8818C10.3431 11.8818 9 13.225 9 14.8818C9 16.5387 10.3431 17.8818 12 17.8818ZM12 17.8818C9.79086 17.8818 8 19.225 8 20.8818M12 17.8818C14.2091 17.8818 16 19.225 16 20.8818"  stroke-width="2" stroke-linecap="round"/>
<path d="M17 8.88184C18.6569 8.88184 20 7.53869 20 5.88184C20 4.22498 18.6569 2.88184 17 2.88184C15.3431 2.88184 14 4.22498 14 5.88184C14 7.53869 15.3431 8.88184 17 8.88184ZM17 8.88184C14.7909 8.88184 13 10.225 13 11.8818M17 8.88184C19.2091 8.88184 21 10.225 21 11.8818"  stroke-width="2" stroke-linecap="round"/>
<path d="M7 8.88184C8.65685 8.88184 10 7.53869 10 5.88184C10 4.22498 8.65685 2.88184 7 2.88184C5.34315 2.88184 4 4.22498 4 5.88184C4 7.53869 5.34315 8.88184 7 8.88184ZM7 8.88184C4.79086 8.88184 3 10.225 3 11.8818M7 8.88184C9.20914 8.88184 11 10.225 11 11.8818"  stroke-width="2" stroke-linecap="round"/>
</svg>
