<svg  viewBox="5 -5 250 80" fill="none" xmlns="http://www.w3.org/2000/svg">
<path d="M38 8.71265C34.9558 9.00373 31.5689 9.16602 28 9.16602C14.7452 9.16602 4 6.92744 4 4.16602V15.166C4 17.9274 14.7452 20.166 28 20.166L30.2781 20.1438C32.3102 15.1356 35.0382 11.6745 38 8.71265Z" fill="#CD7B00" fill-opacity="0.8"/>
<path d="M28 25.5946C14.7452 25.5946 4 23.0362 4 19.8803V32.4517C4 35.5128 14.1091 38.0117 26.8121 38.1591C27.0386 33.243 27.637 29.1161 28.5182 25.5946H28Z" fill="#CD7B00" fill-opacity="0.8"/>
<path d="M27.5 57.166C14.2452 57.166 4 54.3944 4 50.9755V37.3565C4 40.6641 14.0571 43.3659 26.714 43.5382C26.7441 47.5903 26.9942 52.1081 27.5 57.166Z" fill="#CD7B00" fill-opacity="0.8"/>
<path d="M29.0003 34.6659C29.5002 8.66587 47.0002 6.16588 52.5002 5.16586C43.1693 7.89288 33.0002 11.6659 29.0003 34.6659Z" fill="#FFAF13"/>
<path d="M51.1659 4.2964C51.9779 3.10106 52.9182 1.64346 55.3888 1.97419C54.4305 2.8705 53.4535 4.60262 51.1659 4.2964Z" fill="#FFAF13"/>
<path d="M47.2045 5.3271C47.746 3.98732 48.3575 2.36412 50.8423 2.16602C50.0947 3.24438 49.5052 5.14367 47.2045 5.3271Z" fill="#FFAF13"/>
<path d="M48 7.81034C49.1091 6.88404 50.4136 5.74082 52.6984 6.73753C51.5307 7.33611 50.1155 8.7332 48 7.81034Z" fill="#FFAF13"/>
<path d="M42.9762 9.77726C44.0729 8.83627 45.3621 7.67578 47.6599 8.64197C46.5003 9.25605 45.1038 10.6719 42.9762 9.77726Z" fill="#FFAF13"/>
<path d="M39.0004 12.9745C39.9332 11.8708 41.0211 10.5198 43.4435 11.1078C42.3965 11.8987 41.2433 13.5188 39.0004 12.9745Z" fill="#FFAF13"/>
<path d="M42.3855 7.54927C42.8418 6.17814 43.3501 4.51974 45.8176 4.16598C45.1392 5.28916 44.6702 7.22172 42.3855 7.54927Z" fill="#FFAF13"/>
<path d="M38.733 9.94292C39.0185 8.52635 39.3207 6.81831 41.7265 6.16605C41.1903 7.36363 40.9606 9.33899 38.733 9.94292Z" fill="#FFAF13"/>
<path d="M28.8189 43.4853C31.2366 8.01129 51.6822 12.7522 59.6758 13.3464C47.6707 13.7051 34.1658 14.0462 28.8189 43.4853Z" fill="#AFBE00"/>
<path d="M28 57.166C28.5 18.666 51.5 19.666 66 19.166C56 21.666 34.5 19.166 32.5 57.166H28Z" fill="#788300"/>
<path d="M58.1885 57.4625C55.4476 57.4625 52.9808 56.863 50.788 55.6638C48.5953 54.4304 46.8651 52.7002 45.5974 50.4732C44.364 48.2462 43.7473 45.6766 43.7473 42.7644C43.7473 39.8522 44.3812 37.2826 45.6488 35.0556C46.9508 32.8286 48.7152 31.1155 50.9422 29.9164C53.1692 28.683 55.6532 28.0663 58.3941 28.0663C61.135 28.0663 63.6189 28.683 65.8459 29.9164C68.0729 31.1155 69.8202 32.8286 71.0879 35.0556C72.3898 37.2826 73.0408 39.8522 73.0408 42.7644C73.0408 45.6766 72.3727 48.2462 71.0365 50.4732C69.7346 52.7002 67.953 54.4304 65.6917 55.6638C63.4648 56.863 60.9637 57.4625 58.1885 57.4625ZM58.1885 51.1927C59.4904 51.1927 60.7067 50.8843 61.8373 50.2676C63.0022 49.6167 63.9273 48.6574 64.6125 47.3897C65.2977 46.122 65.6404 44.5803 65.6404 42.7644C65.6404 40.0577 64.9209 37.9849 63.4819 36.546C62.0772 35.0727 60.347 34.3361 58.2913 34.3361C56.2356 34.3361 54.5054 35.0727 53.1007 36.546C51.7302 37.9849 51.045 40.0577 51.045 42.7644C51.045 45.471 51.7131 47.561 53.0493 49.0342C54.4198 50.4732 56.1328 51.1927 58.1885 51.1927ZM85.5134 32.9485C86.4385 31.441 87.6376 30.259 89.1109 29.4025C90.6184 28.5459 92.3314 28.1177 94.2501 28.1177V35.6723H92.3486C90.0873 35.6723 88.3742 36.2033 87.2094 37.2654C86.0787 38.3275 85.5134 40.1777 85.5134 42.8158V57H78.3185V28.5288H85.5134V32.9485ZM126.334 28.5288L108.707 70.4647H101.049L107.216 56.2805L95.8071 28.5288H103.876L111.225 48.4175L118.677 28.5288H126.334ZM136.791 51.0899H149.485V57H128.619V51.1927L141.056 34.4389H128.671V28.5288H149.33V34.3361L136.791 51.0899ZM153.205 42.6616C153.205 39.7837 153.771 37.2312 154.901 35.0042C156.066 32.7772 157.625 31.0641 159.578 29.865C161.565 28.6658 163.775 28.0663 166.207 28.0663C168.332 28.0663 170.182 28.4945 171.758 29.3511C173.368 30.2076 174.653 31.2868 175.612 32.5888V28.5288H182.858V57H175.612V52.8372C174.687 54.1734 173.402 55.2869 171.758 56.1777C170.147 57.0343 168.28 57.4625 166.156 57.4625C163.758 57.4625 161.565 56.8458 159.578 55.6124C157.625 54.379 156.066 52.6488 154.901 50.4218C153.771 48.1606 153.205 45.5738 153.205 42.6616ZM175.612 42.7644C175.612 41.0171 175.27 39.5267 174.584 38.2933C173.899 37.0256 172.974 36.0663 171.809 35.4153C170.644 34.7301 169.394 34.3875 168.058 34.3875C166.721 34.3875 165.488 34.713 164.357 35.3639C163.227 36.0149 162.302 36.9742 161.582 38.2419C160.897 39.4753 160.554 40.9485 160.554 42.6616C160.554 44.3747 160.897 45.8822 161.582 47.1841C162.302 48.4518 163.227 49.4282 164.357 50.1135C165.522 50.7987 166.756 51.1413 168.058 51.1413C169.394 51.1413 170.644 50.8158 171.809 50.1649C172.974 49.4796 173.899 48.5203 174.584 47.2869C175.27 46.0192 175.612 44.5117 175.612 42.7644ZM197.08 32.6402C198.005 31.3382 199.273 30.259 200.883 29.4025C202.528 28.5117 204.395 28.0663 206.485 28.0663C208.918 28.0663 211.11 28.6658 213.063 29.865C215.05 31.0641 216.609 32.7772 217.74 35.0042C218.905 37.1969 219.487 39.7494 219.487 42.6616C219.487 45.5738 218.905 48.1606 217.74 50.4218C216.609 52.6488 215.05 54.379 213.063 55.6124C211.11 56.8458 208.918 57.4625 206.485 57.4625C204.395 57.4625 202.545 57.0343 200.935 56.1777C199.359 55.3212 198.074 54.242 197.08 52.94V70.5675H189.885V28.5288H197.08V32.6402ZM212.138 42.6616C212.138 40.9485 211.779 39.4753 211.059 38.2419C210.374 36.9742 209.449 36.0149 208.284 35.3639C207.153 34.713 205.92 34.3875 204.584 34.3875C203.282 34.3875 202.048 34.7301 200.883 35.4153C199.753 36.0663 198.828 37.0256 198.108 38.2933C197.423 39.561 197.08 41.0513 197.08 42.7644C197.08 44.4775 197.423 45.9678 198.108 47.2355C198.828 48.5032 199.753 49.4796 200.883 50.1649C202.048 50.8158 203.282 51.1413 204.584 51.1413C205.92 51.1413 207.153 50.7987 208.284 50.1135C209.449 49.4282 210.374 48.4518 211.059 47.1841C211.779 45.9164 212.138 44.4089 212.138 42.6616ZM231.911 32.6402C232.836 31.3382 234.103 30.259 235.714 29.4025C237.358 28.5117 239.225 28.0663 241.315 28.0663C243.748 28.0663 245.941 28.6658 247.893 29.865C249.881 31.0641 251.44 32.7772 252.57 35.0042C253.735 37.1969 254.317 39.7494 254.317 42.6616C254.317 45.5738 253.735 48.1606 252.57 50.4218C251.44 52.6488 249.881 54.379 247.893 55.6124C245.941 56.8458 243.748 57.4625 241.315 57.4625C239.225 57.4625 237.375 57.0343 235.765 56.1777C234.189 55.3212 232.904 54.242 231.911 52.94V70.5675H224.716V28.5288H231.911V32.6402ZM246.968 42.6616C246.968 40.9485 246.609 39.4753 245.889 38.2419C245.204 36.9742 244.279 36.0149 243.114 35.3639C241.983 34.713 240.75 34.3875 239.414 34.3875C238.112 34.3875 236.878 34.7301 235.714 35.4153C234.583 36.0663 233.658 37.0256 232.938 38.2933C232.253 39.561 231.911 41.0513 231.911 42.7644C231.911 44.4775 232.253 45.9678 232.938 47.2355C233.658 48.5032 234.583 49.4796 235.714 50.1649C236.878 50.8158 238.112 51.1413 239.414 51.1413C240.75 51.1413 241.983 50.7987 243.114 50.1135C244.279 49.4282 245.204 48.4518 245.889 47.1841C246.609 45.9164 246.968 44.4089 246.968 42.6616Z" fill="#121414" fill-opacity="0.9"/>
</svg>
