<svg  viewBox="0 0 22 25" fill="none" xmlns="http://www.w3.org/2000/svg">
<path d="M21.5424 8.76861C15.6394 9.60926 11.1006 14.6845 11.1006 20.8198C11.1006 21.2513 11.1231 21.6777 11.1669 22.0977C11.7459 16.5472 16.0546 12.1059 21.5424 11.3244V8.76861Z" fill="#D2DF3B"/>
<path d="M0.666321 8.97583C0.666321 10.5766 5.33793 11.8742 11.1006 11.8742L11.2028 11.8741C12.0618 10.0026 13.3239 8.35452 14.8779 7.04103C13.7066 7.16743 12.4328 7.23677 11.1006 7.23677C5.37066 7.23677 0.719434 5.95381 0.666772 4.3656L0.666321 8.97583Z" fill="#FBBF24"/>
<path d="M0.666772 10.1624L0.666321 14.7727C0.666321 16.2646 4.72418 17.4932 9.94129 17.6534C9.9433 16.0331 10.2223 14.4776 10.7335 13.0319C5.17329 12.9785 0.718305 11.7166 0.666772 10.1624Z" fill="#FBBF24"/>
<path d="M11.1006 24.0476C5.33793 24.0476 0.666321 22.75 0.666321 21.1492L0.666772 16.539C0.716166 18.0286 4.81104 19.2497 10.0471 19.3956C10.2521 21.0537 10.7488 22.6214 11.4843 24.0457C11.357 24.047 11.2291 24.0476 11.1006 24.0476Z" fill="#FBBF24"/>
<path d="M21.535 13.0973C16.3179 13.674 12.26 18.0971 12.26 23.4679C12.26 23.6625 12.2653 23.8557 12.2758 24.0476H14.5966C14.5848 23.8559 14.5788 23.6626 14.5788 23.4679C14.5788 19.1462 17.5346 15.5148 21.535 14.4852V13.0973Z" fill="#C0CF15"/>
<path d="M21.535 17.8172C19.5348 18.332 18.0569 20.1477 18.0569 22.3086C18.0569 22.9236 18.1766 23.5106 18.394 24.0476H15.8433C15.7742 23.6717 15.7381 23.2842 15.7381 22.8883C15.7381 19.562 18.285 16.8046 21.535 16.5117V17.8172Z" fill="#8B9608"/>
<path d="M20.8903 5.21989C20.01 5.51917 19.4466 6.22208 19.5947 6.81593C19.7796 6.79774 19.9713 6.75688 20.1633 6.69162C21.0435 6.39234 21.607 5.68943 21.4589 5.09559C21.2739 5.11377 21.0822 5.15464 20.8903 5.21989Z" fill="#FCD34D"/>
<path d="M18.5352 5.84328C17.73 6.30815 17.3141 7.10728 17.575 7.66095C17.7529 7.60711 17.9329 7.52973 18.1085 7.42837C18.9137 6.96349 19.3295 6.16436 19.0687 5.6107C18.8908 5.66453 18.7108 5.74192 18.5352 5.84328Z" fill="#FCD34D"/>
<path d="M17.8435 8.01888C18.6487 7.55401 19.5487 7.59341 19.8978 8.09614C19.7622 8.22327 19.6051 8.34052 19.4296 8.44188C18.6244 8.90675 17.7244 8.86735 17.3753 8.36462C17.5109 8.23749 17.6679 8.12024 17.8435 8.01888Z" fill="#FDE68A"/>
<path d="M16.4404 7.06772C15.7054 7.63722 15.4015 8.48526 15.7348 8.99856C15.9038 8.92116 16.0717 8.82013 16.2319 8.69596C16.9668 8.12646 17.2708 7.27842 16.9375 6.76512C16.7685 6.84252 16.6006 6.94355 16.4404 7.06772Z" fill="#FCD34D"/>
<path d="M17.4492 9.53676C16.7918 10.1942 15.9123 10.3891 15.445 9.99382C15.543 9.83593 15.6644 9.68203 15.8077 9.53869C16.4651 8.88126 17.3447 8.68638 17.812 9.08163C17.7139 9.23952 17.5926 9.39342 17.4492 9.53676Z" fill="#FDE68A"/>
<path d="M15.9349 11.2365C15.47 12.0417 14.6709 12.4576 14.1172 12.1968C14.171 12.0189 14.2484 11.8388 14.3498 11.6632C14.8146 10.8581 15.6138 10.4422 16.1674 10.703C16.1136 10.8809 16.0362 11.061 15.9349 11.2365Z" fill="#FDE68A"/>
<path d="M15.0922 13.3024C14.8516 14.2005 14.1873 14.809 13.585 14.7003C13.591 14.5146 13.6191 14.3206 13.6716 14.1248C13.9122 13.2268 14.5765 12.6182 15.1788 12.7269C15.1728 12.9126 15.1447 13.1066 15.0922 13.3024Z" fill="#FDE68A"/>
<path d="M14.6557 8.63934C13.9983 9.29676 13.8034 10.1763 14.1987 10.6436C14.3565 10.5456 14.5104 10.4242 14.6538 10.2809C15.3112 9.62343 15.5061 8.74389 15.1108 8.2766C14.953 8.37464 14.7991 8.49599 14.6557 8.63934Z" fill="#FCD34D"/>
<path d="M13.1889 10.9558C12.7641 11.7828 12.8477 12.6798 13.3669 13.0038C13.4873 12.8621 13.5966 12.6995 13.6893 12.5192C14.114 11.6921 14.0305 10.7952 13.5112 10.4712C13.3909 10.6128 13.2815 10.7755 13.1889 10.9558Z" fill="#FCD34D"/>
<path d="M12.2605 13.5964C12.0463 14.5011 12.3423 15.3519 12.9241 15.542C13.007 15.3757 13.0742 15.1916 13.1209 14.9943C13.3351 14.0896 13.0391 13.2388 12.4573 13.0487C12.3744 13.215 12.3072 13.3991 12.2605 13.5964Z" fill="#FCD34D"/>
</svg>
