<svg  viewBox="0 0 24 24" fill="none" xmlns="http://www.w3.org/2000/svg">
<path d="M7.38999 16.5391C6.00145 15.5599 4.96074 14.164 4.41862 12.5537C3.87651 10.9435 3.86115 9.2024 4.37479 7.58282C4.88842 5.96324 5.90435 4.54925 7.27541 3.54571C8.64646 2.54218 10.3014 2.00122 12.0005 2.00122C13.6996 2.00122 15.3545 2.54218 16.7256 3.54571C18.0966 4.54925 19.1126 5.96324 19.6262 7.58282C20.1398 9.2024 20.1245 10.9435 19.5824 12.5537C19.0402 14.164 17.9995 15.5599 16.611 16.5391L18.694 21.2991C18.7274 21.3752 18.7413 21.4586 18.7344 21.5415C18.7275 21.6244 18.7001 21.7043 18.6545 21.774C18.6089 21.8436 18.5467 21.9007 18.4734 21.9402C18.4001 21.9797 18.3182 22.0003 18.235 22.0001H5.76499C5.6819 22.0002 5.6001 21.9796 5.52697 21.9402C5.45383 21.9007 5.39168 21.8437 5.34612 21.7742C5.30056 21.7047 5.27303 21.625 5.26603 21.5422C5.25902 21.4594 5.27275 21.3762 5.30599 21.3001L7.38899 16.5391H7.38999ZM14.125 15.8461L15.457 14.9051C16.4987 14.1709 17.2796 13.124 17.6865 11.9163C18.0934 10.7085 18.1051 9.40259 17.72 8.18771C17.3349 6.97283 16.573 5.91214 15.5446 5.15933C14.5163 4.40652 13.2749 4.00071 12.0005 4.00071C10.726 4.00071 9.48469 4.40652 8.45634 5.15933C7.42799 5.91214 6.66605 6.97283 6.28096 8.18771C5.89586 9.40259 5.90761 10.7085 6.31449 11.9163C6.72138 13.124 7.50226 14.1709 8.54399 14.9051L9.87499 15.8461L8.05799 20.0001H15.942L14.125 15.8461V15.8461ZM8.11899 10.9701L10.059 10.4851C10.1666 10.9184 10.4162 11.3033 10.768 11.5784C11.1198 11.8534 11.5535 12.0029 12 12.0029C12.4465 12.0029 12.8802 11.8534 13.232 11.5784C13.5837 11.3033 13.8333 10.9184 13.941 10.4851L15.881 10.9701C15.6634 11.8345 15.1635 12.6017 14.4604 13.1497C13.7574 13.6978 12.8914 13.9954 12 13.9954C11.1085 13.9954 10.2426 13.6978 9.53956 13.1497C8.83649 12.6017 8.33654 11.8345 8.11899 10.9701V10.9701Z" />
</svg>
