<svg width="25" height="25" viewBox="0 0 25 25"  xmlns="http://www.w3.org/2000/svg">
<path d="M3.61806 11.6519H8.94793C10.4136 11.6519 11.6129 10.4527 11.6129 8.98699V3.65712C11.6129 2.19141 10.4136 0.992188 8.94793 0.992188H3.61806C2.15235 0.992188 0.953125 2.19141 0.953125 3.65712V8.98699C0.953125 10.4527 2.15235 11.6519 3.61806 11.6519ZM3.61806 3.65712H8.94793V8.98699H3.61806V3.65712ZM3.61806 24.9766H8.94793C10.4136 24.9766 11.6129 23.7774 11.6129 22.3117V16.9818C11.6129 15.5161 10.4136 14.3169 8.94793 14.3169H3.61806C2.15235 14.3169 0.953125 15.5161 0.953125 16.9818V22.3117C0.953125 23.7774 2.15235 24.9766 3.61806 24.9766ZM3.61806 16.9818H8.94793V22.3117H3.61806V16.9818ZM14.2778 3.65712V8.98699C14.2778 10.4527 15.477 11.6519 16.9427 11.6519H22.2726C23.7383 11.6519 24.9375 10.4527 24.9375 8.98699V3.65712C24.9375 2.19141 23.7383 0.992188 22.2726 0.992188H16.9427C15.477 0.992188 14.2778 2.19141 14.2778 3.65712ZM22.2726 8.98699H16.9427V3.65712H22.2726V8.98699ZM24.9375 24.3104V22.9779C24.9375 22.6048 24.6444 22.3117 24.2713 22.3117H22.9388C22.5657 22.3117 22.2726 22.6048 22.2726 22.9779V24.3104C22.2726 24.6835 22.5657 24.9766 22.9388 24.9766H24.2713C24.6444 24.9766 24.9375 24.6835 24.9375 24.3104ZM14.2778 14.9831V16.3156C14.2778 16.6887 14.5709 16.9818 14.944 16.9818H16.2765C16.6496 16.9818 16.9427 16.6887 16.9427 16.3156V14.9831C16.9427 14.61 16.6496 14.3169 16.2765 14.3169H14.944C14.5709 14.3169 14.2778 14.61 14.2778 14.9831ZM18.9414 16.9818H17.609C17.2359 16.9818 16.9427 17.2749 16.9427 17.648V18.9805C16.9427 19.3536 17.2359 19.6467 17.609 19.6467H18.9414C19.3145 19.6467 19.6077 19.3536 19.6077 18.9805V17.648C19.6077 17.2749 19.3145 16.9818 18.9414 16.9818ZM14.2778 20.313V21.6454C14.2778 22.0185 14.5709 22.3117 14.944 22.3117H16.2765C16.6496 22.3117 16.9427 22.0185 16.9427 21.6454V20.313C16.9427 19.9399 16.6496 19.6467 16.2765 19.6467H14.944C14.5709 19.6467 14.2778 19.9399 14.2778 20.313ZM17.609 24.9766H18.9414C19.3145 24.9766 19.6077 24.6835 19.6077 24.3104V22.9779C19.6077 22.6048 19.3145 22.3117 18.9414 22.3117H17.609C17.2359 22.3117 16.9427 22.6048 16.9427 22.9779V24.3104C16.9427 24.6835 17.2359 24.9766 17.609 24.9766ZM20.2739 22.3117H21.6064C21.9795 22.3117 22.2726 22.0185 22.2726 21.6454V20.313C22.2726 19.9399 21.9795 19.6467 21.6064 19.6467H20.2739C19.9008 19.6467 19.6077 19.9399 19.6077 20.313V21.6454C19.6077 22.0185 19.9008 22.3117 20.2739 22.3117ZM21.6064 14.3169H20.2739C19.9008 14.3169 19.6077 14.61 19.6077 14.9831V16.3156C19.6077 16.6887 19.9008 16.9818 20.2739 16.9818H21.6064C21.9795 16.9818 22.2726 16.6887 22.2726 16.3156V14.9831C22.2726 14.61 21.9795 14.3169 21.6064 14.3169ZM22.9388 19.6467H24.2713C24.6444 19.6467 24.9375 19.3536 24.9375 18.9805V17.648C24.9375 17.2749 24.6444 16.9818 24.2713 16.9818H22.9388C22.5657 16.9818 22.2726 17.2749 22.2726 17.648V18.9805C22.2726 19.3536 22.5657 19.6467 22.9388 19.6467Z" />
</svg>
