<svg width="24" height="24" viewBox="0 0 24 24" fill="none" xmlns="http://www.w3.org/2000/svg">
<path d="M12.1716 20.2871C14.1435 19.3897 15.7447 17.8355 16.7181 15.2191C16.759 15.1091 16.7989 14.9971 16.8376 14.8832C17.2131 13.7786 17.3763 12.7037 17.3496 11.7442M11.9749 20.2871C10.0029 19.3897 8.4017 17.8354 7.42837 15.2192C7.38741 15.1091 7.34756 14.9971 7.30884 14.8832C6.94126 13.8019 6.77709 12.749 6.79542 11.805M6.79542 11.805C6.83347 9.84548 7.65789 8.35522 9.0817 8.05451C10.0352 7.85313 11.0943 8.21971 12.0732 8.98904C13.0521 8.21973 14.1112 7.85315 15.0647 8.05453C16.4738 8.35212 17.2958 9.81471 17.3496 11.7442M6.79542 11.805C4.67193 10.9006 2.683 10.7415 1.66152 11.5466C0.88413 12.1594 0.81525 13.2138 1.33251 14.4205C1.84287 15.6111 2.92387 16.95 4.45793 18.1591C7.07751 20.2239 9.7004 21 12.0732 21C14.4461 21 16.9227 20.2236 19.5421 18.159C21.0791 16.9475 22.1613 15.6058 22.6704 14.4135C23.1845 13.2097 23.1144 12.1581 22.3385 11.5465C21.3403 10.7597 19.4182 10.8937 17.3496 11.7442"  stroke-width="2" stroke-linejoin="round"/>
<path d="M8.79297 4.08594L9.20718 4.50015"  stroke-width="2" stroke-linecap="round"/>
<path d="M12.0001 3V3.58579"  stroke-width="2" stroke-linecap="round"/>
<path d="M15.2072 4.08594L14.7929 4.50015"  stroke-width="2" stroke-linecap="round"/>
</svg>
