<svg viewBox="7 8 37 37" xmlns="http://www.w3.org/2000/svg">
<path d="M15 34H31.8C32.4627 34 33 33.4627 33 32.8V16M15 34H10.2C9.53726 34 9 33.4627 9 32.8V20.8C9 14.8353 13.8353 10 19.8 10H31.8C32.4627 10 33 10.5373 33 11.2V16M15 34V38.8C15 39.4627 15.5373 40 16.2 40H37.8C38.4627 40 39 39.4627 39 38.8V17.2C39 16.5373 38.4627 16 37.8 16H33M29 16.5C29 17.8807 27.8807 19 26.5 19C25.1193 19 24 17.8807 24 16.5C24 15.1193 25.1193 14 26.5 14C27.8807 14 29 15.1193 29 16.5ZM13 30.5H29C29 22.5 25 21.5 22.5 24.4998C19 18.5 13 17.3001 13 30.5Z"  stroke-width="2" stroke-linecap="round"/>
</svg>
