<svg width="24" height="24" viewBox="0 0 24 24" fill="none" xmlns="http://www.w3.org/2000/svg">
<path d="M6 17.8818H17.2C17.6418 17.8818 18 17.5237 18 17.0818V5.88184M6 17.8818H2.8C2.35817 17.8818 2 17.5237 2 17.0818V9.08184C2 5.10539 5.22355 1.88184 9.2 1.88184H17.2C17.6418 1.88184 18 2.24001 18 2.68184V5.88184M6 17.8818V21.0818C6 21.5237 6.35817 21.8818 6.8 21.8818H21.2C21.6418 21.8818 22 21.5237 22 21.0818V6.68184C22 6.24001 21.6418 5.88184 21.2 5.88184H18"  stroke-width="2" stroke-linecap="round"/>
<path d="M14 6.38184C14 7.21026 13.3284 7.88184 12.5 7.88184C11.6716 7.88184 11 7.21026 11 6.38184C11 5.55341 11.6716 4.88184 12.5 4.88184C13.3284 4.88184 14 5.55341 14 6.38184Z"  stroke-width="2" stroke-linecap="round"/>
<path d="M14 14.8818H6C6 9.17198 9.5 8.76473 10.5 11.5882C10.5 11.5882 14 10.9098 14 14.8818Z"  stroke-width="2" stroke-linecap="round"/>
</svg>
