<svg width="50" height="50" viewBox="0 0 50 50" fill="none" xmlns="http://www.w3.org/2000/svg">
<path d="M14 9H12C10.3431 9 9 10.3431 9 12V13.5M36.5 9H38C39.6569 9 41 10.3431 41 12V13.5M9 36.5V38C9 39.6569 10.3431 41 12 41H13.5M36.5 41H38C39.6569 41 41 39.6569 41 38V36.5M16.7273 38H33.2727C35.8835 38 38 35.8835 38 33.2727V16.7273C38 14.1165 35.8835 12 33.2727 12H16.7273C14.1165 12 12 14.1165 12 16.7273V33.2727C12 35.8835 14.1165 38 16.7273 38Z" stroke="black" stroke-width="2" stroke-linecap="round"/>
<path d="M25.3299 27.68C25.5633 27.8334 25.6933 27.9867 25.7199 28.14C25.7533 28.2934 25.6833 28.49 25.5099 28.73C25.3899 28.9034 25.2799 29.02 25.1799 29.08C25.0799 29.14 24.9733 29.1534 24.8599 29.12C24.7466 29.0867 24.6133 29.02 24.4599 28.92L23.7199 28.44C23.4333 28.6734 23.1166 28.8567 22.7699 28.99C22.4233 29.1234 22.0566 29.19 21.6699 29.19C21.1899 29.19 20.7366 29.1 20.3099 28.92C19.8899 28.7334 19.5199 28.48 19.1999 28.16C18.8866 27.8334 18.6366 27.4567 18.4499 27.03C18.2699 26.5967 18.1799 26.14 18.1799 25.66C18.1799 25.1534 18.2666 24.6834 18.4399 24.25C18.6199 23.81 18.8633 23.4234 19.1699 23.09C19.4833 22.7567 19.8466 22.4967 20.2599 22.31C20.6733 22.1234 21.1166 22.03 21.5899 22.03C22.0699 22.03 22.5199 22.1234 22.9399 22.31C23.3666 22.49 23.7366 22.7434 24.0499 23.07C24.3699 23.3967 24.6199 23.7767 24.7999 24.21C24.9799 24.6434 25.0699 25.1134 25.0699 25.62C25.0699 25.9067 25.0333 26.1867 24.9599 26.46C24.8933 26.7334 24.7966 26.9934 24.6699 27.24L25.3299 27.68ZM21.6199 27.67C21.8866 27.67 22.1366 27.6167 22.3699 27.51C22.6033 27.4034 22.8066 27.26 22.9799 27.08C23.1599 26.8934 23.2966 26.6734 23.3899 26.42C23.4899 26.1667 23.5399 25.8967 23.5399 25.61C23.5399 25.33 23.4899 25.0667 23.3899 24.82C23.2899 24.5667 23.1499 24.3467 22.9699 24.16C22.7966 23.9667 22.5933 23.8167 22.3599 23.71C22.1333 23.6034 21.8899 23.55 21.6299 23.55C21.3633 23.55 21.1133 23.6034 20.8799 23.71C20.6466 23.8167 20.4399 23.9667 20.2599 24.16C20.0866 24.3467 19.9499 24.5667 19.8499 24.82C19.7499 25.0667 19.6999 25.3334 19.6999 25.62C19.6999 25.9 19.7499 26.1667 19.8499 26.42C19.9566 26.6667 20.0966 26.8834 20.2699 27.07C20.4499 27.2567 20.6533 27.4034 20.8799 27.51C21.1133 27.6167 21.3599 27.67 21.6199 27.67Z" fill="black"/>
<path d="M27.1599 29.09C26.9199 29.09 26.7465 29.0534 26.6399 28.98C26.5332 28.9067 26.4665 28.81 26.4399 28.69C26.4199 28.57 26.4099 28.4467 26.4099 28.32V22.85C26.4099 22.7234 26.4199 22.6034 26.4399 22.49C26.4665 22.3767 26.5332 22.2834 26.6399 22.21C26.7465 22.1367 26.9232 22.1 27.1699 22.1H29.2499C29.5232 22.1 29.8032 22.15 30.0899 22.25C30.3765 22.35 30.6399 22.5034 30.8799 22.71C31.1199 22.9167 31.3132 23.1734 31.4599 23.48C31.6065 23.7867 31.6799 24.15 31.6799 24.57C31.6799 24.85 31.6365 25.12 31.5499 25.38C31.4699 25.64 31.3465 25.88 31.1799 26.1C31.0458 26.277 30.8859 26.4345 30.7001 26.5727C30.6549 26.6063 30.6081 26.6387 30.5599 26.67C30.3132 26.8234 30.0299 26.9334 29.7099 27H29.1356H27.9299V28.33C27.9299 28.4567 27.9165 28.58 27.8899 28.7C27.8632 28.8134 27.7965 28.9067 27.6899 28.98C27.5832 29.0534 27.4065 29.09 27.1599 29.09ZM27.9299 25.5H29.3199C29.4132 25.5 29.5099 25.4834 29.6099 25.45C29.7099 25.41 29.7999 25.3534 29.8799 25.28C29.9599 25.2067 30.0265 25.11 30.0799 24.99C30.1332 24.87 30.1599 24.7267 30.1599 24.56C30.1599 24.3667 30.1199 24.2 30.0399 24.06C29.9665 23.92 29.8599 23.8134 29.7199 23.74C29.5799 23.66 29.4165 23.62 29.2299 23.62H27.9299V25.5Z" fill="black"/>
<path d="M30.5599 26.67C30.3132 26.8234 30.0299 26.9334 29.7099 27H29.1356L30.3299 28.71C30.4899 28.93 30.6432 29.06 30.7899 29.1C30.9365 29.14 31.1332 29.07 31.3799 28.89C31.5532 28.7634 31.6699 28.65 31.7299 28.55C31.7965 28.45 31.8132 28.3434 31.7799 28.23C31.7532 28.1167 31.6832 27.98 31.5699 27.82L30.7001 26.5727C30.6549 26.6063 30.6081 26.6387 30.5599 26.67Z" fill="black"/>
</svg>
