<svg width="24" height="24" viewBox="0 0 24 24" fill="none" xmlns="http://www.w3.org/2000/svg">
<rect x="5" y="4.88184" width="14" height="14" rx="2"  stroke-width="2"/>
<path d="M22 5.88184V3.88184C22 2.77727 21.1046 1.88184 20 1.88184H18M22 17.8818V19.8818C22 20.9864 21.1046 21.8818 20 21.8818H18M7 21.8818H4C2.89543 21.8818 2 20.9864 2 19.8818V17.8818M2 5.88184V3.88184C2 2.77727 2.89543 1.88184 4 1.88184H6"  stroke-width="2" stroke-linecap="round" stroke-linejoin="round"/>
<path d="M10 7.88184V9.88184H8"  stroke-width="2" stroke-linecap="round"/>
<path d="M14 15.8818V13.8818H16"  stroke-width="2" stroke-linecap="round"/>
<path d="M10 15.8818V13.8818H8"  stroke-width="2" stroke-linecap="round"/>
<rect x="14" y="7.88184" width="2" height="2" rx="1"  stroke-width="2"/>
</svg>
