<svg viewBox="0 0 24 24" fill="none" xmlns="http://www.w3.org/2000/svg">
<path d="M5 21L3 9H21L19 21H5ZM6.675 19H17.325L18.6 11H5.4L6.675 19ZM10 15H14C14.2833 15 14.521 14.904 14.713 14.712C14.9043 14.5207 15 14.2833 15 14C15 13.7167 14.9043 13.479 14.713 13.287C14.521 13.0957 14.2833 13 14 13H10C9.71667 13 9.47933 13.0957 9.288 13.287C9.096 13.479 9 13.7167 9 14C9 14.2833 9.096 14.5207 9.288 14.712C9.47933 14.904 9.71667 15 10 15ZM6 8C5.71667 8 5.479 7.90433 5.287 7.713C5.09567 7.521 5 7.28333 5 7C5 6.71667 5.09567 6.479 5.287 6.287C5.479 6.09567 5.71667 6 6 6H18C18.2833 6 18.5207 6.09567 18.712 6.287C18.904 6.479 19 6.71667 19 7C19 7.28333 18.904 7.521 18.712 7.713C18.5207 7.90433 18.2833 8 18 8H6ZM8 5C7.71667 5 7.479 4.904 7.287 4.712C7.09567 4.52067 7 4.28333 7 4C7 3.71667 7.09567 3.479 7.287 3.287C7.479 3.09567 7.71667 3 8 3H16C16.2833 3 16.5207 3.09567 16.712 3.287C16.904 3.479 17 3.71667 17 4C17 4.28333 16.904 4.52067 16.712 4.712C16.5207 4.904 16.2833 5 16 5H8ZM6.675 19H17.325H6.675Z" />
</svg>
