<svg width="50" height="50" viewBox="0 0 50 50" fill="none" xmlns="http://www.w3.org/2000/svg">
<path d="M17.2059 35.7941C20.0485 35.7941 22.3529 33.4897 22.3529 30.6471C22.3529 27.8044 20.0485 25.5 17.2059 25.5C14.3632 25.5 12.0588 27.8044 12.0588 30.6471C12.0588 33.4897 14.3632 35.7941 17.2059 35.7941ZM17.2059 35.7941C13.2262 35.7941 10 39.0203 10 43M17.2059 35.7941C21.1856 35.7941 24.4118 39.0203 24.4118 43" stroke="#121414" stroke-opacity="0.9" stroke-width="2"  />
<path d="M33.6766 35.7941C36.5192 35.7941 38.8236 33.4897 38.8236 30.6471C38.8236 27.8044 36.5192 25.5 33.6766 25.5C30.8339 25.5 28.5295 27.8044 28.5295 30.6471C28.5295 33.4897 30.8339 35.7941 33.6766 35.7941ZM33.6766 35.7941C29.6969 35.7941 26.4707 39.0203 26.4707 43M33.6766 35.7941C37.6563 35.7941 40.8825 39.0203 40.8825 43" stroke="#121414" stroke-opacity="0.9" stroke-width="2"/>
<path d="M25.4412 18.2941C28.2839 18.2941 30.5883 15.9897 30.5883 13.1471C30.5883 10.3044 28.2839 8 25.4412 8C22.5986 8 20.2942 10.3044 20.2942 13.1471C20.2942 15.9897 22.5986 18.2941 25.4412 18.2941ZM25.4412 18.2941C21.4615 18.2941 18.2354 21.5203 18.2354 25.5M25.4412 18.2941C29.4209 18.2941 32.6471 21.5203 32.6471 25.5" stroke="#121414" stroke-opacity="0.9" stroke-width="2"/>
</svg>
