<svg  viewBox="6 5 35 35" fill="none" xmlns="http://www.w3.org/2000/svg">
<path d="M34.7141 16.3997C32.4498 15.795 29.9336 16.3809 28.1571 18.1573C26.3807 19.9338 25.7948 22.45 26.3995 24.7143C28.6639 25.319 31.1801 24.7332 32.9565 22.9567C34.733 21.1803 35.3189 18.6641 34.7141 16.3997Z" stroke="white" stroke-width="2"/>
<path d="M16.6313 16.7215C18.8957 16.1168 21.4119 16.7026 23.1883 18.4791C24.9648 20.2555 25.5506 22.7717 24.9459 25.0361C22.6816 25.6408 20.1654 25.0549 18.3889 23.2785C16.6125 21.502 16.0266 18.9859 16.6313 16.7215Z" stroke="white" stroke-width="2"/>
<path d="M26 24L26 31" stroke="white" stroke-width="2" stroke-linecap="round"/>
<path d="M17.0549 39C17.5524 34.5 21.3674 31 26 31C30.6326 31 34.4476 34.5 34.9451 39H17.0549Z" stroke="white" stroke-width="2"/>
</svg>
