<svg width="24" height="24" viewBox="0 0 24 24" fill="none" xmlns="http://www.w3.org/2000/svg">
<path d="M12 14.8818C7.58172 14.8818 4 17.5681 4 20.8818H20C20 17.5681 16.4183 14.8818 12 14.8818Z"  stroke-width="2" stroke-linejoin="round"/>
<path d="M12 14.8818V12.8818"  stroke-width="2" stroke-linecap="round"/>
<path d="M18.4892 4.30002C17.5129 3.3237 15.1385 4.11516 13.1859 6.06778C12.7002 6.5535 12.2863 7.0653 11.9537 7.5752C11.621 7.06534 11.2072 6.55357 10.7215 6.06789C8.76886 4.11527 6.39449 3.32381 5.41818 4.30013C4.44187 5.27644 5.23332 7.6508 7.18595 9.60343C8.84193 11.2594 10.5 11.8818 12 11.8818C13.5 11.8818 15.0656 11.2591 16.7215 9.60332C18.6741 7.65069 19.4655 5.27633 18.4892 4.30002Z"  stroke-width="2" stroke-linejoin="round"/>
</svg>
