<svg viewBox="0 0 12 12" fill="none" xmlns="http://www.w3.org/2000/svg">
<path d="M1.97438 6.659C1.92962 6.78121 1.83896 6.88115 1.72169 6.93758C1.60441 6.99401 1.46975 7.00249 1.34632 6.96122C1.22289 6.91995 1.12042 6.83217 1.06067 6.71654C1.00093 6.60092 0.988628 6.46655 1.02638 6.342C1.01638 6.372 1.02638 6.341 1.02638 6.341C1.04416 6.28594 1.06486 6.23186 1.08838 6.179C1.12838 6.084 1.18738 5.953 1.26838 5.798C1.43338 5.488 1.69038 5.075 2.06938 4.662C2.83438 3.827 4.08738 3 6.00038 3C7.91338 3 9.16638 3.827 9.93138 4.662C10.3397 5.10998 10.6709 5.62261 10.9114 6.179L10.9574 6.292C10.9604 6.3 10.9704 6.352 10.9804 6.402L11.0004 6.5C11.0004 6.5 11.0844 6.833 10.6584 6.974C10.5329 7.0159 10.396 7.00638 10.2775 6.94753C10.1591 6.88867 10.0688 6.78529 10.0264 6.66V6.657L10.0204 6.641C9.97014 6.51254 9.91272 6.38701 9.84838 6.265C9.67057 5.92952 9.45081 5.61802 9.19438 5.338C8.58438 4.673 7.58738 4 6.00038 4C4.41338 4 3.41638 4.673 2.80638 5.338C2.47612 5.70007 2.20755 6.11391 2.01138 6.563C2.00089 6.58881 1.99089 6.61481 1.98138 6.641L1.97438 6.659V6.659ZM4.00038 7C4.00038 6.46957 4.21109 5.96086 4.58617 5.58579C4.96124 5.21071 5.46995 5 6.00038 5C6.53081 5 7.03952 5.21071 7.41459 5.58579C7.78967 5.96086 8.00038 6.46957 8.00038 7C8.00038 7.53043 7.78967 8.03914 7.41459 8.41421C7.03952 8.78929 6.53081 9 6.00038 9C5.46995 9 4.96124 8.78929 4.58617 8.41421C4.21109 8.03914 4.00038 7.53043 4.00038 7V7Z" />
</svg>
