<svg viewBox="0 0 20 20" fill="none" xmlns="http://www.w3.org/2000/svg">
<path d="M4.99915 13.9999C4.27593 13.9995 3.5614 13.8422 2.90487 13.5389C2.24833 13.2355 1.66541 12.7934 1.19632 12.2429C0.727237 11.6925 0.383151 11.0468 0.187803 10.3504C-0.00754566 9.6541 -0.0495059 8.92367 0.0648166 8.20954C0.179139 7.49541 0.447023 6.81458 0.849987 6.21402C1.25295 5.61346 1.7814 5.10747 2.39889 4.73095C3.01637 4.35443 3.70818 4.11634 4.4266 4.03312C5.14502 3.9499 5.87295 4.02352 6.56015 4.24891C7.19473 2.76654 8.32148 1.54862 9.7501 0.800854C11.1787 0.0530931 12.8216 -0.178674 14.4014 0.1447C15.9811 0.468073 17.4008 1.32677 18.4207 2.57574C19.4406 3.82472 19.9981 5.38743 19.9992 6.99991C19.9992 8.85642 19.2617 10.6369 17.9489 11.9497C16.6361 13.2624 14.8557 13.9999 12.9992 13.9999H4.99915ZM4.99915 11.9999H12.9992C13.9021 11.9995 14.7881 11.7546 15.5631 11.2911C16.3381 10.8277 16.9731 10.163 17.4007 9.3677C17.8283 8.5724 18.0325 7.67614 17.9917 6.77409C17.951 5.87205 17.6667 4.99788 17.169 4.24441C16.6714 3.49093 15.979 2.88628 15.1654 2.49465C14.3518 2.10302 13.4473 1.93904 12.548 2.0201C11.6487 2.10116 10.7881 2.42425 10.0576 2.95506C9.32712 3.48588 8.75402 4.20459 8.39915 5.03491L7.67915 6.72091L5.93715 6.14891C5.52493 6.01391 5.08833 5.9699 4.65746 6.01993C4.22658 6.06996 3.81168 6.21283 3.44136 6.4387C3.07103 6.66456 2.75409 6.96805 2.51238 7.32823C2.27067 7.68842 2.10995 8.09673 2.04129 8.52503C1.97262 8.95333 1.99766 9.39143 2.11466 9.80912C2.23166 10.2268 2.43785 10.6142 2.71902 10.9445C3.00018 11.2748 3.34963 11.5402 3.74327 11.7224C4.13691 11.9046 4.56539 11.9993 4.99915 11.9999V11.9999ZM5.99915 14.9999C6.26437 14.9999 6.51872 15.1053 6.70626 15.2928C6.8938 15.4803 6.99915 15.7347 6.99915 15.9999V17.9999C6.99915 18.2651 6.8938 18.5195 6.70626 18.707C6.51872 18.8946 6.26437 18.9999 5.99915 18.9999C5.73394 18.9999 5.47958 18.8946 5.29205 18.707C5.10451 18.5195 4.99915 18.2651 4.99915 17.9999V15.9999C4.99915 15.7347 5.10451 15.4803 5.29205 15.2928C5.47958 15.1053 5.73394 14.9999 5.99915 14.9999ZM9.99916 14.9999C10.2644 14.9999 10.5187 15.1053 10.7063 15.2928C10.8938 15.4803 10.9992 15.7347 10.9992 15.9999V18.9999C10.9992 19.2651 10.8938 19.5195 10.7063 19.707C10.5187 19.8946 10.2644 19.9999 9.99916 19.9999C9.73394 19.9999 9.47958 19.8946 9.29205 19.707C9.10451 19.5195 8.99916 19.2651 8.99916 18.9999V15.9999C8.99916 15.7347 9.10451 15.4803 9.29205 15.2928C9.47958 15.1053 9.73394 14.9999 9.99916 14.9999V14.9999ZM13.9992 14.9999C14.2644 14.9999 14.5187 15.1053 14.7063 15.2928C14.8938 15.4803 14.9992 15.7347 14.9992 15.9999V16.9999C14.9992 17.2651 14.8938 17.5195 14.7063 17.707C14.5187 17.8946 14.2644 17.9999 13.9992 17.9999C13.7339 17.9999 13.4796 17.8946 13.292 17.707C13.1045 17.5195 12.9992 17.2651 12.9992 16.9999V15.9999C12.9992 15.7347 13.1045 15.4803 13.292 15.2928C13.4796 15.1053 13.7339 14.9999 13.9992 14.9999V14.9999Z" />
</svg>
