<svg width="24" height="24" viewBox="0 0 24 24" fill="none" xmlns="http://www.w3.org/2000/svg">
<path d="M9.81065 4.88955L9.81287 3.88955H9.81065V4.88955ZM17.2211 4.90599L17.2189 5.90599H17.2211V4.90599ZM7.25499 19.694L8.12501 19.201L8.125 19.201L7.25499 19.694ZM5.00276 13.3846L6.00225 13.3527L6.00225 13.3527L5.00276 13.3846ZM19.8201 9.03436L18.8811 8.69043L18.8811 8.69043L19.8201 9.03436ZM18.6326 12.2765L19.5716 12.6204L19.5716 12.6204L18.6326 12.2765ZM18.6678 14.4794L17.7402 14.8532L17.7402 14.8532L18.6678 14.4794ZM19.6314 16.871L20.5589 16.4973L20.5589 16.4973L19.6314 16.871ZM7.38699 19.9038L8.25144 20.4065C8.44038 20.0816 8.4312 19.6782 8.22767 19.3623L7.38699 19.9038ZM9.38143 21.0822L9.48498 20.0875C9.09364 20.0468 8.71477 20.2393 8.51697 20.5795L9.38143 21.0822ZM7.24424 5.87653L6.33665 6.29638L6.33665 6.29638L7.24424 5.87653ZM7.56611 4.13104L7.06882 3.26345L7.06882 3.26345L7.56611 4.13104ZM9.35377 4.90626L8.48932 5.40897C8.6801 5.73703 9.04014 5.92883 9.41883 5.90414L9.35377 4.90626ZM19.2816 5.99535L18.5031 6.623L18.5031 6.623L19.2816 5.99535ZM7.24188 6.2179L8.12428 6.68841L8.12428 6.68841L7.24188 6.2179ZM7.37974 19.8925L8.22042 19.351L8.22036 19.3509L7.37974 19.8925ZM16.7424 20.1074H9.7789V22.1074H16.7424V20.1074ZM9.80843 5.88955L17.2189 5.90599L17.2233 3.90599L9.81287 3.88955L9.80843 5.88955ZM8.125 19.201C7.68973 18.4329 7.16693 17.4251 6.74719 16.3661C6.32219 15.2939 6.03052 14.237 6.00225 13.3527L4.00327 13.4166C4.04229 14.6368 4.428 15.9427 4.88791 17.1031C5.3531 18.2767 5.92278 19.3714 6.38498 20.187L8.125 19.201ZM18.8811 8.69043L17.6936 11.9326L19.5716 12.6204L20.7591 9.37828L18.8811 8.69043ZM17.7402 14.8532L18.7038 17.2447L20.5589 16.4973L19.5953 14.1057L17.7402 14.8532ZM17.6936 11.9326C17.347 12.8786 17.3637 13.9186 17.7402 14.8532L19.5953 14.1057C19.4037 13.6302 19.3953 13.1016 19.5716 12.6204L17.6936 11.9326ZM16.7424 22.1074C18.0992 22.1074 19.2629 21.4668 20.0003 20.5129L18.4179 19.2897C18.0383 19.7809 17.4463 20.1074 16.7424 20.1074V22.1074ZM20.0003 20.5129C20.8368 19.4308 21.1356 17.9288 20.5589 16.4973L18.7038 17.2447C18.9968 17.972 18.851 18.7295 18.4179 19.2897L20.0003 20.5129ZM18.3447 20.404C18.4603 20.6029 18.4945 20.8086 18.4806 20.9492C18.4659 21.0978 18.4202 21.0603 18.5044 21.012L19.499 22.7472C20.1412 22.3791 20.414 21.7218 20.4709 21.1459C20.5286 20.562 20.3875 19.9384 20.0736 19.3986L18.3447 20.404ZM18.5044 21.012C18.5576 20.9815 18.5569 21.0222 18.4497 20.9768C18.3427 20.9314 18.1939 20.8181 18.0778 20.6185L16.3488 21.6239C16.6623 22.163 17.1287 22.5889 17.6689 22.818C18.209 23.0471 18.8877 23.0976 19.499 22.7472L18.5044 21.012ZM6.52253 19.4011C6.21574 19.9286 6.06276 20.5406 6.10937 21.1218C6.15567 21.6991 6.41973 22.3613 7.06882 22.7333L8.06341 20.9982C8.15442 21.0503 8.11411 21.1009 8.10297 20.9619C8.09213 20.8267 8.12863 20.6177 8.25144 20.4065L6.52253 19.4011ZM7.06882 22.7333C7.69474 23.0921 8.38722 23.0198 8.92044 22.7881C9.45865 22.5543 9.93086 22.1266 10.2459 21.5849L8.51697 20.5795C8.40239 20.7765 8.24598 20.9005 8.12346 20.9538C7.99594 21.0092 7.99557 20.9593 8.06341 20.9982L7.06882 22.7333ZM8.15184 5.45668C8.06708 5.27347 8.0596 5.1188 8.07542 5.03093C8.09053 4.94701 8.11219 4.97066 8.06341 4.99862L7.06882 3.26345C5.9141 3.92533 5.90293 5.35881 6.33665 6.29638L8.15184 5.45668ZM8.06341 4.99862C8.00167 5.03401 7.99649 4.98936 8.10745 5.03788C8.21815 5.08629 8.37085 5.20526 8.48932 5.40897L10.2182 4.40355C9.90708 3.8685 9.445 3.43992 8.90879 3.20543C8.37284 2.97106 7.68864 2.90817 7.06882 3.26345L8.06341 4.99862ZM20.1461 6.49806C20.7513 5.45731 20.6991 3.93565 19.499 3.24776L18.5044 4.98292C18.4811 4.96955 18.5105 4.96807 18.5246 5.05595C18.5389 5.14557 18.5268 5.30407 18.4172 5.49264L20.1461 6.49806ZM19.499 3.24776C18.8717 2.8882 18.1837 2.96198 17.6516 3.20233C17.12 3.44245 16.6645 3.87391 16.3566 4.40328L18.0855 5.4087C18.2073 5.19932 18.3631 5.07552 18.4749 5.02502C18.5861 4.97476 18.5736 5.02259 18.5044 4.98292L19.499 3.24776ZM6.00225 13.3527C5.97197 12.4058 6.24778 11.1959 6.68425 9.9489C7.11416 8.72071 7.6692 7.54186 8.12428 6.68841L6.35948 5.7474C5.86844 6.66831 5.26776 7.94198 4.79656 9.28814C4.33192 10.6155 3.96123 12.1018 4.00327 13.4166L6.00225 13.3527ZM9.81065 3.88955C9.64868 3.88955 9.43008 3.89916 9.28871 3.90838L9.41883 5.90414C9.53381 5.89664 9.70626 5.88955 9.81065 5.88955V3.88955ZM9.7789 20.1074C9.72245 20.1074 9.58238 20.0977 9.48498 20.0875L9.27787 22.0768C9.39493 22.089 9.61707 22.1074 9.7789 22.1074V20.1074ZM8.22767 19.3623L8.22042 19.351L6.53906 20.4341L6.54631 20.4453L8.22767 19.3623ZM8.22036 19.3509C8.20415 19.3257 8.18064 19.2893 8.15859 19.2545C8.14756 19.2371 8.13799 19.2218 8.13058 19.2098C8.1215 19.1951 8.12104 19.194 8.12501 19.201L6.38498 20.187C6.42616 20.2597 6.51765 20.4008 6.53911 20.4341L8.22036 19.3509ZM17.2211 5.90599C17.582 5.90599 17.7764 5.97389 17.9158 6.05473C18.0755 6.14741 18.2473 6.30572 18.5031 6.623L20.0601 5.3677C19.755 4.9893 19.3988 4.60293 18.9195 4.32485C18.4199 4.03493 17.8644 3.90599 17.2211 3.90599V5.90599ZM18.5031 6.623C18.958 7.18725 19.1394 7.9852 18.8811 8.69043L20.7591 9.37828C21.2902 7.92827 20.8952 6.40353 20.0601 5.3677L18.5031 6.623ZM6.33665 6.29638C6.27557 6.16434 6.24733 5.95773 6.35948 5.7474L8.12428 6.68841C8.34927 6.26645 8.31361 5.80639 8.15183 5.45668L6.33665 6.29638ZM17.4498 13.5C17.4498 13.6228 17.3173 13.9881 16.5775 14.3882C15.8988 14.7554 14.9519 15 14 15V17C15.2572 17 16.5353 16.685 17.5291 16.1473C18.4621 15.6427 19.4498 14.758 19.4498 13.5H17.4498ZM14 15C13.0529 15 12.2429 14.7581 11.7016 14.4198C11.1462 14.0727 11 13.7212 11 13.5H9C9 14.6596 9.74924 15.5581 10.6416 16.1158C11.548 16.6823 12.738 17 14 17V15ZM11 13.5C11 13.2788 11.1462 12.9273 11.7016 12.5802C12.2429 12.2419 13.0529 12 14 12V10C12.738 10 11.548 10.3177 10.6416 10.8842C9.74924 11.4419 9 12.3404 9 13.5H11ZM14 12C14.9519 12 15.8988 12.2446 16.5775 12.6118C17.3173 13.0119 17.4498 13.3772 17.4498 13.5H19.4498C19.4498 12.242 18.4621 11.3573 17.5291 10.8527C16.5353 10.315 15.2572 10 14 10V12Z" />
</svg>
