<svg width="50" height="50" viewBox="0 0 50 50" fill="none" xmlns="http://www.w3.org/2000/svg">
<path d="M15.52 22.0777C18.3534 19.7443 25.82 16.4777 33.02 22.0777M15.6777 28.2047C18.6224 30.5259 25.9498 33.5767 33.02 28.0777M16.1557 22.8496C18.7918 20.6787 25.7203 17.667 32.4061 22.867L33.5401 21.409L33.2594 23.5622L33.251 23.6266V23.6915V27.8196C33.251 28.0262 33.267 28.2323 33.2988 28.4361L32.4061 27.2883C25.7203 32.4883 18.7918 29.4766 16.1557 27.3057L15.696 27.8639C15.6962 27.8491 15.6963 27.8344 15.6963 27.8196V23.6915V23.6266L15.6879 23.5622L15.4895 22.0406L16.1557 22.8496ZM33.563 21.2334C26.2354 15.5908 18.6603 18.5062 15.3468 20.9461L14.5883 15.1271C14.541 14.7648 14.4365 14.4122 14.2786 14.0826C13.713 12.9021 14.8782 11.6359 16.1016 12.1017L17.5057 12.6363C17.9602 12.8094 18.4426 12.8981 18.929 12.8981H30.2706C30.7926 12.8981 31.3092 12.7928 31.7895 12.5884L32.5654 12.2582C33.8083 11.7293 35.0744 12.9584 34.5823 14.2164C34.4782 14.4829 34.4068 14.7609 34.3698 15.0446L33.563 21.2334ZM15.4505 29.2847C18.7957 31.6934 26.2194 34.4723 33.4301 29.0234L34.2689 32.3088C34.4125 32.8711 34.6767 33.3954 35.0432 33.8454L35.7577 34.7225C36.822 36.0291 35.8923 37.9856 34.2071 37.9856H15.0049C13.424 37.9856 12.468 36.2379 13.3209 34.9067L14.127 33.6484C14.3575 33.2886 14.5289 32.8942 14.6346 32.4802L15.4505 29.2847Z" stroke="white" stroke-width="2"/>
</svg>
